<?xml version="1.0" encoding="UTF-8" standalone="no"?>
<svg width="121px" height="36px" viewBox="0 0 121 36" version="1.1" xmlns="http://www.w3.org/2000/svg" xmlns:xlink="http://www.w3.org/1999/xlink">
    <!-- Generator: sketchtool 39.1 (31721) - http://www.bohemiancoding.com/sketch -->
    <title>DC43C5D0-9198-48AA-9B76-D5FA2AD43B09</title>
    <desc>Created with sketchtool.</desc>
    <defs>
        <rect id="path-1" x="0" y="0" width="121" height="36" rx="3.34106729"></rect>
        <mask id="mask-2" maskContentUnits="userSpaceOnUse" maskUnits="objectBoundingBox" x="0" y="0" width="121" height="36" fill="white">
            <use xlink:href="#path-1"></use>
        </mask>
    </defs>
    <g id="v1.4" stroke="none" stroke-width="1" fill="none" fill-rule="evenodd">
        <g id="Main-Scroll-+popover" transform="translate(-730.000000, -471.000000)">
            <g id="Appstore" transform="translate(730.000000, 471.000000)">
                <use id="backfround-copy" stroke="#28B6FF" mask="url(#mask-2)" stroke-width="1.67053364" fill="#FFFFFF" xlink:href="#path-1"></use>
                <path d="M46.4442546,27.6473318 L48.477946,27.6473318 L44.0260417,15.2884009 L41.9667155,15.2884009 L37.5148112,27.6473318 L39.4801432,27.6473318 L40.6166178,24.3670334 L45.3163249,24.3670334 L46.4442546,27.6473318 Z M42.898112,17.5323648 L43.0433757,17.5323648 L44.8292643,22.7568609 L41.1036784,22.7568609 L42.898112,17.5323648 Z M53.8703125,18.1661561 C52.6056641,18.1661561 51.5119141,18.7999474 50.9479493,19.8619761 L50.8112305,19.8619761 L50.8112305,18.3203216 L49.0424317,18.3203216 L49.0424317,30.6706877 L50.8795899,30.6706877 L50.8795899,26.2341484 L51.0248535,26.2341484 C51.5119141,27.2190944 52.5629395,27.8014972 53.8874024,27.8014972 C56.2372559,27.8014972 57.7326172,25.942947 57.7326172,22.9795443 C57.7326172,20.0161416 56.2372559,18.1661561 53.8703125,18.1661561 L53.8703125,18.1661561 Z M53.3490723,26.1485009 C51.8109864,26.1485009 50.8454102,24.9323068 50.8454102,22.988109 C50.8454102,21.0353466 51.8109864,19.8191524 53.3576172,19.8191524 C54.912793,19.8191524 55.8441895,21.0096523 55.8441895,22.9795443 C55.8441895,24.958001 54.912793,26.1485009 53.3490723,26.1485009 L53.3490723,26.1485009 Z M63.3984213,18.1661561 C62.1337729,18.1661561 61.0400229,18.7999474 60.476058,19.8619761 L60.3393393,19.8619761 L60.3393393,18.3203216 L58.5705404,18.3203216 L58.5705404,30.6706877 L60.4076986,30.6706877 L60.4076986,26.2341484 L60.5529623,26.2341484 C61.0400229,27.2190944 62.0910482,27.8014972 63.4155111,27.8014972 C65.7653646,27.8014972 67.260726,25.942947 67.260726,22.9795443 C67.260726,20.0161416 65.7653646,18.1661561 63.3984213,18.1661561 L63.3984213,18.1661561 Z M62.8771811,26.1485009 C61.3390951,26.1485009 60.3735189,24.9323068 60.3735189,22.988109 C60.3735189,21.0353466 61.3390951,19.8191524 62.885726,19.8191524 C64.4409018,19.8191524 65.3722982,21.0096523 65.3722982,22.9795443 C65.3722982,24.958001 64.4409018,26.1485009 62.8771811,26.1485009 L62.8771811,26.1485009 Z M71.1497072,24.3242097 C71.2864259,26.5339146 73.1235841,27.947098 75.8579591,27.947098 C78.7803224,27.947098 80.6089357,26.4653966 80.6089357,24.1015262 C80.6089357,22.242976 79.5664552,21.2152063 77.0371583,20.6242387 L75.6785158,20.2902135 C74.0720704,19.9133646 73.4226564,19.4080445 73.4226564,18.5258755 C73.4226564,17.4124583 74.4309572,16.6844548 75.9434083,16.6844548 C77.3789552,16.6844548 78.3701661,17.3953288 78.5496095,18.5344403 L80.4124025,18.5344403 C80.3013185,16.4532066 78.4727052,14.9886347 75.9690431,14.9886347 C73.2773927,14.9886347 71.4829591,16.4532066 71.4829591,18.6543467 C71.4829591,20.4700732 72.4998048,21.5492314 74.7300294,22.071681 L76.3193849,22.4570947 C77.951465,22.8425083 78.6692384,23.4077817 78.6692384,24.3499039 C78.6692384,25.4461916 77.5413087,26.2427132 76.0032228,26.2427132 C74.3540529,26.2427132 73.2090333,25.4975801 73.0466798,24.3242097 L71.1497072,24.3242097 Z M82.1902671,16.0592282 L82.1902671,18.3631453 L80.6607261,18.3631453 L80.6607261,19.9133646 L82.1902671,19.9133646 L82.1902671,25.1806845 C82.1902671,26.9792815 83.0020347,27.6987203 85.044271,27.6987203 C85.4031577,27.6987203 85.7364097,27.6558965 86.026937,27.604508 L86.026937,26.0714182 C85.7705894,26.0971125 85.6253257,26.114242 85.3433433,26.114242 C84.4290366,26.114242 84.0274253,25.6860046 84.0274253,24.7096233 L84.0274253,19.9133646 L86.1123862,19.9133646 L86.1123862,18.3631453 L84.0274253,18.3631453 L84.0274253,16.0592282 L82.1902671,16.0592282 Z M90.6673505,26.1913247 C89.0694501,26.1913247 88.1722333,25.0179542 88.1722333,22.9795443 C88.1722333,20.9582638 89.0694501,19.7763287 90.6673505,19.7763287 C92.2567059,19.7763287 93.1624676,20.9582638 93.1624676,22.9795443 C93.1624676,25.0093895 92.2567059,26.1913247 90.6673505,26.1913247 L90.6673505,26.1913247 Z M90.6673505,27.8271915 C93.3846356,27.8271915 95.0508954,26.0029002 95.0508954,22.9795443 C95.0508954,19.9733179 93.3760907,18.1404619 90.6673505,18.1404619 C87.9500653,18.1404619 86.2752606,19.9733179 86.2752606,22.9795443 C86.2752606,26.0029002 87.9415204,27.8271915 90.6673505,27.8271915 L90.6673505,27.8271915 Z M95.8888186,27.6473318 L97.7259768,27.6473318 L97.7259768,22.140199 C97.7259768,20.8297926 98.7086428,19.9476236 100.09292,19.9476236 C100.400537,19.9476236 100.964502,20.0075769 101.109766,20.0589653 L101.109766,18.2432388 C100.913233,18.1918503 100.562891,18.1661561 100.297998,18.1661561 C99.0846194,18.1661561 98.0592287,18.8342064 97.7943362,19.7506344 L97.6576174,19.7506344 L97.6576174,18.3203216 L95.8888186,18.3203216 L95.8888186,27.6473318 Z M105.246029,19.7078107 C106.604671,19.7078107 107.493343,20.6584977 107.536068,22.1230695 L102.836361,22.1230695 C102.9389,20.6670624 103.887386,19.7078107 105.246029,19.7078107 L105.246029,19.7078107 Z M107.527523,25.129296 C107.185726,25.8572995 106.425228,26.2598427 105.314388,26.2598427 C103.844662,26.2598427 102.896175,25.2235082 102.836361,23.5876414 L102.836361,23.4848644 L109.407406,23.4848644 L109.407406,22.8425083 C109.407406,19.9133646 107.843685,18.1404619 105.254574,18.1404619 C102.631283,18.1404619 100.965023,20.0332711 100.965023,23.0138033 C100.965023,25.9943355 102.597103,27.8271915 105.263119,27.8271915 C107.390804,27.8271915 108.877621,26.7994218 109.296322,25.129296 L107.527523,25.129296 Z" id="App-Store" fill="#28B6FF"></path>
                <path d="M39.2364909,5.64147694 L39.2364909,11.5266821 L41.3564453,11.5266821 C43.1061198,11.5266821 44.1193034,10.4458925 44.1193034,8.56572651 C44.1193034,6.71410963 43.0979818,5.64147694 41.3564453,5.64147694 L39.2364909,5.64147694 Z M40.1479492,6.473481 L41.2547201,6.473481 C42.4713542,6.473481 43.191569,7.24838675 43.191569,8.57796186 C43.191569,9.92792923 42.4835612,10.6946781 41.2547201,10.6946781 L40.1479492,10.6946781 L40.1479492,6.473481 Z M47.3264974,10.8333454 C46.5655924,10.8333454 46.1383464,10.2745976 46.1383464,9.30392619 C46.1383464,8.34141169 46.5655924,7.77858541 47.3264974,7.77858541 C48.0833333,7.77858541 48.5146484,8.34141169 48.5146484,9.30392619 C48.5146484,10.2705191 48.0833333,10.8333454 47.3264974,10.8333454 L47.3264974,10.8333454 Z M47.3264974,11.6123296 C48.6204427,11.6123296 49.4138997,10.7436195 49.4138997,9.30392619 C49.4138997,7.87238979 48.6163737,6.99960122 47.3264974,6.99960122 C46.0325521,6.99960122 45.235026,7.87238979 45.235026,9.30392619 C45.235026,10.7436195 46.0284831,11.6123296 47.3264974,11.6123296 L47.3264974,11.6123296 Z M56.2709961,7.08524869 L55.3961589,7.08524869 L54.6067708,10.4744417 L54.5375977,10.4744417 L53.6261393,7.08524869 L52.7879232,7.08524869 L51.8764648,10.4744417 L51.8113607,10.4744417 L51.0179036,7.08524869 L50.1308594,7.08524869 L51.3515625,11.5266821 L52.2508138,11.5266821 L53.1622721,8.25576421 L53.2314453,8.25576421 L54.1469727,11.5266821 L55.054362,11.5266821 L56.2709961,7.08524869 Z M57.3826497,11.5266821 L58.257487,11.5266821 L58.257487,8.92870867 C58.257487,8.23537195 58.6888021,7.80305612 59.3927409,7.80305612 C60.0437826,7.80305612 60.3611654,8.15788138 60.3611654,8.87161035 L60.3611654,11.5266821 L61.2360026,11.5266821 L61.2360026,8.65137398 C61.2360026,7.5950551 60.6785482,6.99960122 59.6897786,6.99960122 C59.0224609,6.99960122 58.5056966,7.29732816 58.2900391,7.79082077 L58.2249349,7.79082077 L58.2249349,7.08524869 L57.3826497,7.08524869 L57.3826497,11.5266821 Z M62.7138672,11.5266821 L63.5887044,11.5266821 L63.5887044,5.3519069 L62.7138672,5.3519069 L62.7138672,11.5266821 Z M66.9790039,10.8333454 C66.218099,10.8333454 65.7908529,10.2745976 65.7908529,9.30392619 C65.7908529,8.34141169 66.218099,7.77858541 66.9790039,7.77858541 C67.7358398,7.77858541 68.1671549,8.34141169 68.1671549,9.30392619 C68.1671549,10.2705191 67.7358398,10.8333454 66.9790039,10.8333454 L66.9790039,10.8333454 Z M66.9790039,11.6123296 C68.2729492,11.6123296 69.0664062,10.7436195 69.0664062,9.30392619 C69.0664062,7.87238979 68.2688802,6.99960122 66.9790039,6.99960122 C65.6850586,6.99960122 64.8875326,7.87238979 64.8875326,9.30392619 C64.8875326,10.7436195 65.6809896,11.6123296 66.9790039,11.6123296 L66.9790039,11.6123296 Z M71.773112,10.8618946 C71.2970378,10.8618946 70.9511719,10.6294229 70.9511719,10.2297346 C70.9511719,9.83820331 71.2278646,9.63020229 71.8382161,9.58941778 L72.9205729,9.52008411 L72.9205729,9.89122317 C72.9205729,10.4418141 72.4322917,10.8618946 71.773112,10.8618946 L71.773112,10.8618946 Z M71.5493164,11.6000943 C72.1311849,11.6000943 72.6153971,11.3472303 72.8798828,10.9026791 L72.949056,10.9026791 L72.949056,11.5266821 L73.7913411,11.5266821 L73.7913411,8.49231439 C73.7913411,7.55427059 73.1647135,6.99960122 72.0538737,6.99960122 C71.0488281,6.99960122 70.3326823,7.48901537 70.2431641,8.25168576 L71.0895182,8.25168576 C71.1871745,7.93764501 71.5249023,7.75819316 72.0131836,7.75819316 C72.6113281,7.75819316 72.9205729,8.02329249 72.9205729,8.49231439 L72.9205729,8.87568881 L71.7202148,8.94502248 C70.6663411,9.0102777 70.0722656,9.47114269 70.0722656,10.2705191 C70.0722656,11.0821309 70.6948242,11.6000943 71.5493164,11.6000943 L71.5493164,11.6000943 Z M76.8642578,11.6000943 C77.4746094,11.6000943 77.9913737,11.3105242 78.2558594,10.8251885 L78.3250326,10.8251885 L78.3250326,11.5266821 L79.1632487,11.5266821 L79.1632487,5.3519069 L78.2884115,5.3519069 L78.2884115,7.79082077 L78.2233073,7.79082077 C77.9832357,7.30140661 77.4705404,7.01183657 76.8642578,7.01183657 C75.7452799,7.01183657 75.0250651,7.90093895 75.0250651,9.30392619 C75.0250651,10.7109919 75.7371419,11.6000943 76.8642578,11.6000943 L76.8642578,11.6000943 Z M77.1124674,7.79897767 C77.8448893,7.79897767 78.3046875,8.3821962 78.3046875,9.30800464 C78.3046875,10.2378915 77.8489583,10.8129532 77.1124674,10.8129532 C76.3719076,10.8129532 75.9283854,10.2460484 75.9283854,9.30392619 C75.9283854,8.36996085 76.3759766,7.79897767 77.1124674,7.79897767 L77.1124674,7.79897767 Z M85.0405273,10.8333454 C84.2796224,10.8333454 83.8523763,10.2745976 83.8523763,9.30392619 C83.8523763,8.34141169 84.2796224,7.77858541 85.0405273,7.77858541 C85.7973633,7.77858541 86.2286784,8.34141169 86.2286784,9.30392619 C86.2286784,10.2705191 85.7973633,10.8333454 85.0405273,10.8333454 L85.0405273,10.8333454 Z M85.0405273,11.6123296 C86.3344727,11.6123296 87.1279297,10.7436195 87.1279297,9.30392619 C87.1279297,7.87238979 86.3304036,6.99960122 85.0405273,6.99960122 C83.746582,6.99960122 82.949056,7.87238979 82.949056,9.30392619 C82.949056,10.7436195 83.742513,11.6123296 85.0405273,11.6123296 L85.0405273,11.6123296 Z M88.3860677,11.5266821 L89.2609049,11.5266821 L89.2609049,8.92870867 C89.2609049,8.23537195 89.6922201,7.80305612 90.3961589,7.80305612 C91.0472005,7.80305612 91.3645833,8.15788138 91.3645833,8.87161035 L91.3645833,11.5266821 L92.2394206,11.5266821 L92.2394206,8.65137398 C92.2394206,7.5950551 91.6819661,6.99960122 90.6931966,6.99960122 C90.0258789,6.99960122 89.5091146,7.29732816 89.293457,7.79082077 L89.2283529,7.79082077 L89.2283529,7.08524869 L88.3860677,7.08524869 L88.3860677,11.5266821 Z M96.472819,6.00853756 L96.472819,7.10564095 L95.7444661,7.10564095 L95.7444661,7.84384063 L96.472819,7.84384063 L96.472819,10.3520882 C96.472819,11.2085629 96.859375,11.5511528 97.8318685,11.5511528 C98.0027669,11.5511528 98.1614583,11.5307606 98.2998047,11.5062899 L98.2998047,10.7762471 C98.1777344,10.7884825 98.1085612,10.7966394 97.9742839,10.7966394 C97.5388997,10.7966394 97.3476562,10.5927168 97.3476562,10.1277733 L97.3476562,7.84384063 L98.3404948,7.84384063 L98.3404948,7.10564095 L97.3476562,7.10564095 L97.3476562,6.00853756 L96.472819,6.00853756 Z M99.5864258,11.5266821 L100.461263,11.5266821 L100.461263,8.93278712 C100.461263,8.25984266 100.904785,7.80713457 101.620931,7.80713457 C102.280111,7.80713457 102.609701,8.16603828 102.609701,8.87568881 L102.609701,11.5266821 L103.484538,11.5266821 L103.484538,8.65953089 C103.484538,7.60321201 102.914876,7.00367967 101.917969,7.00367967 C101.250651,7.00367967 100.737956,7.30140661 100.522298,7.79897767 L100.453125,7.79897767 L100.453125,5.3519069 L99.5864258,5.3519069 L99.5864258,11.5266821 Z M106.744629,7.7459578 C107.391602,7.7459578 107.814779,8.19866589 107.835124,8.89608106 L105.597168,8.89608106 C105.645996,8.20274434 106.097656,7.7459578 106.744629,7.7459578 L106.744629,7.7459578 Z M107.831055,10.3276175 C107.668294,10.6742858 107.306152,10.865973 106.777181,10.865973 C106.077311,10.865973 105.625651,10.3724804 105.597168,9.59349623 L105.597168,9.54455481 L108.726237,9.54455481 L108.726237,9.23867097 C108.726237,7.84384063 107.981608,6.99960122 106.748698,6.99960122 C105.499512,6.99960122 104.706055,7.90093895 104.706055,9.32023999 C104.706055,10.739541 105.483236,11.6123296 106.752767,11.6123296 C107.765951,11.6123296 108.473958,11.1229155 108.67334,10.3276175 L107.831055,10.3276175 Z" id="Download-on-the" fill="#28B6FF"></path>
                <g id="logo_apple" transform="translate(10.833333, 5.596288)" fill="#28B6FF">
                    <path d="M16.1117305,12.5752953 C16.084913,9.58793245 18.5521281,8.1345707 18.6649468,8.06690781 C17.2676597,6.02497161 15.1019108,5.74597806 14.3408471,5.72373273 C12.521877,5.53186673 10.7574668,6.81468094 9.83087403,6.81468094 C8.88578638,6.81468094 7.45890746,5.7422705 5.92105935,5.77378473 C3.94210869,5.80437206 2.0907726,6.95278738 1.07540446,8.73612158 C-1.02006386,12.3723066 0.542752317,17.715821 2.55037002,20.6549856 C3.55464125,22.095371 4.7281405,23.7016694 6.26413912,23.6451292 C7.76684698,23.5839545 8.32816617,22.6848723 10.1415878,22.6848723 C11.938364,22.6848723 12.4654677,23.6451292 14.0319828,23.6080536 C15.6447352,23.5839545 16.6601033,22.1630338 17.6292343,20.7096721 C18.7897871,19.0616637 19.2558578,17.4349737 19.2743526,17.3515537 C19.2373629,17.3395041 16.1431718,16.155867 16.1117305,12.5752953" id="Fill-2"></path>
                    <path d="M13.152552,3.79024253 C13.9607776,2.77715299 14.5137741,1.39886923 14.3602667,0.000193912433 C13.1904664,0.0520996895 11.7275225,0.81122168 10.8850814,1.80206589 C10.1397383,2.67519521 9.47392312,4.10631164 9.64592537,5.45215429 C10.9599856,5.55040451 12.3091861,4.78757496 13.152552,3.79024253" id="Fill-3"></path>
                </g>
            </g>
        </g>
    </g>
</svg>