<?xml version="1.0" encoding="UTF-8" standalone="no"?>
<svg width="88px" height="88px" viewBox="0 0 88 88" version="1.1" xmlns="http://www.w3.org/2000/svg" xmlns:xlink="http://www.w3.org/1999/xlink">
    <!-- Generator: sketchtool 3.8.3 (29802) - http://www.bohemiancoding.com/sketch -->
    <title>7E477EEF-26B0-408A-9CFD-A3A95351C215</title>
    <desc>Created with sketchtool.</desc>
    <defs></defs>
    <g id="v1.4" stroke="none" stroke-width="1" fill="none" fill-rule="evenodd">
        <g id="Failure" transform="translate(-468.000000, -246.000000)">
            <g id="thin-0060_error_warning_danger_stop_delete_exit" transform="translate(467.000000, 245.000000)">
                <path d="M87.052875,67.284375 L64.516125,44.751 L86.926875,22.33875 C87.82575,21.439875 87.82725,19.97475 86.926875,19.077375 L70.7295,2.8785 C69.865875,2.014875 68.335125,2.014875 67.47,2.8785 L45.05775,25.292625 L22.642125,2.8785 C21.775125,2.014875 20.24625,2.014875 19.37925,2.8785 L2.936625,19.327875 C2.03925,20.228625 2.03925,21.687 2.936625,22.58925 L25.348875,45 L3.0645,67.289625 C2.160375,68.1885 2.160375,69.64875 3.0645,70.547625 L19.2585,86.743125 C20.158875,87.642 21.61575,87.642 22.5165,86.743125 L44.806125,64.456875 L67.34625,86.995125 C68.237625,87.892875 69.709125,87.895125 70.60575,86.995125 L87.05325,70.54575 C87.94725,69.658125 87.95925,68.19075 87.052875,67.284375 L87.052875,67.284375 Z" id="Shape" stroke="#EE2D2D" stroke-width="2"></path>
                <rect id="Rectangle-path" x="0" y="0" width="90" height="90"></rect>
            </g>
        </g>
    </g>
</svg>