<?xml version="1.0" encoding="UTF-8" standalone="no"?>
<svg width="214px" height="44px" viewBox="0 0 214 44" version="1.1" xmlns="http://www.w3.org/2000/svg" xmlns:xlink="http://www.w3.org/1999/xlink">
    <!-- Generator: sketchtool 3.6.1 (26313) - http://www.bohemiancoding.com/sketch -->
    <title>Group</title>
    <desc>Created with sketchtool.</desc>
    <defs></defs>
    <g id="Page-1-Copy" stroke="none" stroke-width="1" fill="none" fill-rule="evenodd">
        <g id="020" transform="translate(-405.000000, -57.000000)" fill="#28B6FF">
            <g id="Group" transform="translate(405.000000, 57.000000)">
                <g id="lipSync_logo_editable" transform="translate(88.490909, 11.647059)" stroke="#28B6FF" stroke-width="0.5">
                    <path d="M0.115533639,0.839105882 L2.03746136,0.839105882 L2.03746136,15.9837333 L11.6227718,15.9837333 L11.6227718,17.7489098 L0.115533639,17.7489098 L0.115533639,0.839105882 Z" id="Fill-5"></path>
                    <path d="M18.5059144,0.838588235 L20.4278421,0.838588235 L20.4278421,17.7483922 L18.5059144,17.7483922 L18.5059144,0.838588235 Z" id="Fill-7"></path>
                    <path d="M34.7208329,10.0665098 C35.4211374,10.0665098 36.0588838,9.9785098 36.6358097,9.80078431 C37.2127355,9.62133333 37.7097259,9.36941176 38.125043,9.03639216 C38.5386224,8.70509804 38.854889,8.31341176 39.0755805,7.86305882 C39.2945343,7.4092549 39.4057489,6.90023529 39.4057489,6.33427451 L39.4057489,6.28596078 C39.4057489,5.07466667 38.9869563,4.15670588 38.1493712,3.53552941 C37.3117861,2.91435294 36.2013775,2.60203922 34.8181456,2.60203922 L30.501628,2.60203922 L30.501628,10.0665098 L34.7208329,10.0665098 Z M28.5797003,0.838588235 L34.9536885,0.838588235 C35.9094391,0.838588235 36.7817789,0.96454902 37.5689699,1.21301961 C38.3544232,1.46321569 39.0286618,1.81694118 39.5882104,2.27592157 C40.147759,2.73490196 40.5769779,3.29568627 40.8776049,3.95482353 C41.1764942,4.61568627 41.3276766,5.36454902 41.3276766,6.20141176 L41.3276766,6.24972549 C41.3276766,7.16768627 41.1486906,7.97003922 40.7924562,8.65505882 C40.4344842,9.33835294 39.9531334,9.91466667 39.3449284,10.380549 C38.7367234,10.8481569 38.0259925,11.1984314 37.216211,11.4313725 C36.4046918,11.6660392 35.5445162,11.7816471 34.6374219,11.7816471 L30.501628,11.7816471 L30.501628,17.7483922 L28.5797003,17.7483922 L28.5797003,0.838588235 Z" id="Fill-9"></path>
                    <path d="M53.855309,17.9896157 C52.4929298,17.9896157 51.2487162,17.7687529 50.1209304,17.325302 C48.9948823,16.8835765 47.9209661,16.2037333 46.897444,15.2840471 L48.0895258,13.882949 C48.9809805,14.6904784 49.8811239,15.2892235 50.7899559,15.6843608 C51.6987879,16.079498 52.7449004,16.2744784 53.9282936,16.2744784 C55.0804076,16.2744784 55.9996659,16.005302 56.6895442,15.4652235 C57.3794224,14.9268706 57.7234926,14.2384 57.7234926,13.3998118 L57.7234926,13.351498 C57.7234926,12.9649882 57.6591967,12.6147137 57.528867,12.3006745 C57.3985374,11.9866353 57.1708949,11.7002039 56.8459397,11.4448314 C56.5209845,11.1860078 56.0691751,10.9530667 55.4922492,10.7442824 C54.9153233,10.535498 54.1802642,10.3336157 53.285334,10.1386353 C52.3104683,9.92985098 51.4607191,9.68828235 50.737824,9.41392941 C50.0131912,9.13957647 49.4154126,8.81000784 48.9444882,8.42522353 C48.4735638,8.03698824 48.1242804,7.58663529 47.8966379,7.07071373 C47.6689955,6.55479216 47.5543054,5.95087059 47.5543054,5.26067451 L47.5543054,5.21063529 C47.5543054,4.55149804 47.6933237,3.93894902 47.9678848,3.37471373 C48.2441836,2.81047843 48.6334348,2.32561569 49.1356383,1.91494902 C49.6378419,1.50255686 50.2304073,1.18161569 50.9115969,0.94694902 C51.5927864,0.714007843 52.338272,0.59667451 53.1497912,0.59667451 C54.399218,0.59667451 55.4887738,0.77094902 56.421934,1.11604706 C57.3550942,1.46287059 58.258713,1.98224314 59.1345282,2.6758902 L58.015431,4.14945882 C57.2212891,3.50412549 56.421934,3.03651765 55.6191034,2.74663529 C54.8162728,2.45675294 53.97695,2.31181176 53.1011348,2.31181176 C51.9820376,2.31181176 51.0992716,2.57408627 50.4493611,3.0969098 C49.8011884,3.62145882 49.4762331,4.27024314 49.4762331,5.04153725 L49.4762331,5.08985098 C49.4762331,5.49361569 49.5422668,5.85079216 49.6708587,6.16483137 C49.8011884,6.48059608 50.0357817,6.77047843 50.3763765,7.03447843 C50.7169713,7.30020392 51.1878957,7.54177255 51.787412,7.75918431 C52.3869284,7.97659608 53.1584798,8.18192941 54.098591,8.37518431 C55.9961905,8.79620392 57.3950619,9.37596863 58.2952053,10.1162039 C59.1953487,10.8547137 59.6454203,11.869302 59.6454203,13.1582431 L59.6454203,13.2082824 C59.6454203,13.9312627 59.5011889,14.5886745 59.2144637,15.1753412 C58.9260007,15.7637333 58.5280609,16.2675765 58.0223819,16.6851451 C57.5149652,17.1044392 56.9050225,17.4271059 56.1908161,17.6531451 C55.4783474,17.8791843 54.6981073,17.9896157 53.855309,17.9896157" id="Fill-10"></path>
                    <path d="M72.0531494,11.0572863 L64.9736435,0.838933333 L67.3091506,0.838933333 L73.0367037,9.29556078 L78.8163887,0.838933333 L81.0545831,0.838933333 L73.9750771,11.0331294 L73.9750771,17.7487373 L72.0531494,17.7487373 L72.0531494,11.0572863 Z" id="Fill-11"></path>
                    <path d="M87.3074515,0.839105882 L89.1077383,0.839105882 L99.8364741,14.3911059 L99.8364741,0.839105882 L101.709745,0.839105882 L101.709745,17.7489098 L100.177069,17.7489098 L89.1807229,3.88287059 L89.1807229,17.7489098 L87.3074515,17.7489098 L87.3074515,0.839105882 Z" id="Fill-12"></path>
                    <path d="M117.474245,18.0384471 C116.240457,18.0384471 115.105721,17.8124078 114.066559,17.3620549 C113.029135,16.911702 112.128992,16.2939765 111.367867,15.5140549 C110.605004,14.7341333 110.008963,13.8109961 109.579744,12.7498196 C109.148787,11.6834667 108.935047,10.5498196 108.935047,9.34197647 L108.935047,9.29538824 C108.935047,8.10134902 109.148787,6.97460392 109.579744,5.91170196 C110.008963,4.8488 110.605004,3.91876078 111.367867,3.11985882 C112.128992,2.32613333 113.037824,1.69460392 114.092625,1.23734902 C115.145688,0.778368627 116.297802,0.548878431 117.547229,0.548878431 C118.325732,0.548878431 119.026036,0.612721569 119.651618,0.742133333 C120.275463,0.871545098 120.855864,1.05099608 121.391085,1.28566275 C121.926305,1.52032941 122.41982,1.80158431 122.875105,2.13115294 C123.328652,2.46244706 123.76656,2.82825098 124.188828,3.2302902 L122.875105,4.62966275 C122.145259,3.95499608 121.361543,3.40111373 120.527434,2.9662902 C119.691586,2.53146667 118.690655,2.31232941 117.522901,2.31232941 C116.581052,2.31232941 115.71045,2.4900549 114.90762,2.84378039 C114.104789,3.19750588 113.406222,3.69099608 112.815394,4.31734902 C112.222829,4.94542745 111.760593,5.68221176 111.428687,6.52770196 C111.095043,7.37319216 110.929959,8.2808 110.929959,9.24362353 L110.929959,9.29538824 C110.929959,10.2754667 111.095043,11.1899765 111.428687,12.0337412 C111.760593,12.8809569 112.222829,13.6177412 112.815394,14.2458196 C113.406222,14.873898 114.104789,15.3691137 114.90762,15.7314667 C115.71045,16.0938196 116.581052,16.2732706 117.522901,16.2732706 C118.690655,16.2732706 119.695062,16.0610353 120.539598,15.6331137 C121.382396,15.2086431 122.209555,14.609898 123.021074,13.8334275 L124.28614,15.0671529 C123.848233,15.5192314 123.389472,15.9229961 122.911597,16.2870745 C122.433722,16.647702 121.917616,16.9600157 121.366756,17.2171137 C120.814159,17.4742118 120.223331,17.6760941 119.590798,17.8210353 C118.958265,17.9659765 118.252747,18.0384471 117.474245,18.0384471" id="Fill-13"></path>
                </g>
                <g id="lipSync_logo_editable">
                    <path d="M2.51115858,19.0210085 L2.51115858,7.19428511 C2.51115858,2.05658298 7.38664164,1.83764681 7.9435986,1.8334766 L32.5805052,1.8334766 C37.7745508,1.8334766 38.0002871,6.6375617 38.0066162,7.19428511 L38.0066162,19.0293489 C38.0066162,24.1670511 33.1205847,24.3880723 32.5720665,24.3901574 L17.203008,24.3901574 C17.203008,24.3901574 11.0047522,28.4519447 8.95413793,29.8072638 L8.95413793,24.3901574 L7.92672112,24.3901574 C2.73478524,24.3901574 2.51537795,19.5631362 2.51115858,19.0210085 L2.51115858,19.0210085 Z M7.92672112,0.0194340426 C4.42675297,0.0757319149 0.673622562,2.32764681 0.673622562,7.19428511 L0.673622562,19.0293489 C0.715816271,22.2821149 2.77908863,25.7225404 7.1166019,26.1270511 L7.1166019,33.1997319 C7.1166019,33.1997319 17.316931,26.4856894 17.7578553,26.2062851 L32.5805052,26.2062851 C36.0889121,26.1624979 39.8420425,23.8939021 39.8420425,19.0293489 L39.8420425,7.18594468 C39.7935197,3.72258298 37.498182,0.0194340426 32.5805052,0.0194340426 L7.92672112,0.0194340426 Z" id="Fill-1"></path>
                    <path d="M59.79819,35.1724511 L58.7728829,35.1724511 L58.7728829,40.5895574 C56.7201589,39.2342383 50.5240128,35.1724511 50.5240128,35.1724511 L35.1528447,35.1724511 C34.6064361,35.170366 29.718295,34.9493447 29.718295,29.8116426 L29.718295,17.9765787 C29.724624,17.4198553 29.9503604,12.6157702 35.1444059,12.6157702 L59.7813125,12.6157702 C60.3403792,12.6199404 65.2137525,12.8388766 65.2137525,17.9765787 L65.2137525,29.8033021 C65.2095332,30.3454298 64.9901259,35.1724511 59.79819,35.1724511 L59.79819,35.1724511 Z M35.1444059,10.8017277 C30.2267292,10.8017277 27.9313914,14.5048766 27.8828686,17.9682383 L27.8828686,29.8116426 C27.8828686,34.6761957 31.635999,36.9447915 35.1444059,36.9885787 L49.9670558,36.9885787 C50.4079801,37.267983 60.6104189,43.9820255 60.6104189,43.9820255 L60.6104189,36.9093447 C64.9458225,36.504834 67.0090949,33.0644085 67.0512886,29.8116426 L67.0512886,17.9765787 C67.0512886,13.1099404 63.2981582,10.8580255 59.79819,10.8017277 L35.1444059,10.8017277 Z" id="Fill-3"></path>
                </g>
            </g>
        </g>
    </g>
</svg>