<?xml version="1.0" encoding="UTF-8" standalone="no"?>
<svg width="12px" height="15px" viewBox="0 0 12 15" version="1.1" xmlns="http://www.w3.org/2000/svg" xmlns:xlink="http://www.w3.org/1999/xlink">
    <!-- Generator: sketchtool 3.8.3 (29802) - http://www.bohemiancoding.com/sketch -->
    <title>9A586147-B178-4106-985F-79641A39AE72</title>
    <desc>Created with sketchtool.</desc>
    <defs>
        <polygon id="path-1" points="0 0 16 0 16 16 0 16"></polygon>
    </defs>
    <g id="v1.4" stroke="none" stroke-width="1" fill="none" fill-rule="evenodd" opacity="0.5">
        <g id="Choose-amount" transform="translate(-294.000000, -538.000000)">
            <g id="ic_lock_outline_24px" transform="translate(292.000000, 538.000000)">
                <g id="Clipped">
                    <mask id="mask-2" fill="white">
                        <use xlink:href="#path-1"></use>
                    </mask>
                    <g id="a"></g>
                    <path d="M8,11.3333333 C8.73333333,11.3333333 9.33333333,10.7333333 9.33333333,10 C9.33333333,9.26666667 8.73333333,8.66666667 8,8.66666667 C7.26666667,8.66666667 6.66666667,9.26666667 6.66666667,10 C6.66666667,10.7333333 7.26666667,11.3333333 8,11.3333333 L8,11.3333333 Z M12,5.33333333 L11.3333333,5.33333333 L11.3333333,4 C11.3333333,2.16 9.84,0.666666667 8,0.666666667 C6.16,0.666666667 4.66666667,2.16 4.66666667,4 L4.66666667,5.33333333 L4,5.33333333 C3.26666667,5.33333333 2.66666667,5.93333333 2.66666667,6.66666667 L2.66666667,13.3333333 C2.66666667,14.0666667 3.26666667,14.6666667 4,14.6666667 L12,14.6666667 C12.7333333,14.6666667 13.3333333,14.0666667 13.3333333,13.3333333 L13.3333333,6.66666667 C13.3333333,5.93333333 12.7333333,5.33333333 12,5.33333333 L12,5.33333333 Z M5.93333333,4 C5.93333333,2.86 6.86,1.93333333 8,1.93333333 C9.14,1.93333333 10.0666667,2.86 10.0666667,4 L10.0666667,5.33333333 L5.93333333,5.33333333 L5.93333333,4 L5.93333333,4 Z M12,13.3333333 L4,13.3333333 L4,6.66666667 L12,6.66666667 L12,13.3333333 L12,13.3333333 Z" id="Shape" fill="#000000" mask="url(#mask-2)"></path>
                </g>
            </g>
        </g>
    </g>
</svg>