<?xml version="1.0" encoding="UTF-8" standalone="no"?>
<svg width="17px" height="17px" viewBox="0 0 17 17" version="1.1" xmlns="http://www.w3.org/2000/svg" xmlns:xlink="http://www.w3.org/1999/xlink">
    <!-- Generator: sketchtool 3.8.3 (29802) - http://www.bohemiancoding.com/sketch -->
    <title>0441495A-8366-4F4B-9D71-AE8624F79F5B</title>
    <desc>Created with sketchtool.</desc>
    <defs></defs>
    <g id="v1.4" stroke="none" stroke-width="1" fill="none" fill-rule="evenodd">
        <g id="Main-Scroll-+popover" transform="translate(-722.000000, -435.000000)" fill="#28B6FF">
            <g id="Group-5" transform="translate(682.000000, 383.000000)">
                <path d="M41.3443357,68.0200005 L42.6886714,68.0200005 L46.7216785,68.0200005 L49.4103499,68.0200005 L53.443357,68.0200005 L54.7876927,68.0200005 C55.5270774,68.0200005 56.1320284,67.4150494 56.1320284,66.6756648 L56.1320284,62.7546856 L40,62.7546856 L40,66.6756648 C40,67.4150494 40.6049511,68.0200005 41.3443357,68.0200005 Z M52.8115192,54.9037651 L54.5591557,53.1561287 C54.8280228,52.8872616 54.8280228,52.4705175 54.5591557,52.2016504 C54.2902885,51.9327832 53.8735445,51.9327832 53.6046773,52.2016504 L51.6150605,54.1912672 C50.5530353,53.6535329 49.3431331,53.3443357 48.0660142,53.3443357 C46.7754519,53.3443357 45.5655498,53.6535329 44.4900812,54.1912672 L42.4870211,52.2016504 C42.2181539,51.9327832 41.8014098,51.9327832 41.5325427,52.2016504 C41.2636756,52.4705175 41.2636756,52.8872616 41.5325427,53.1561287 L43.2936225,54.9172085 C41.3040056,56.3825344 40,58.7351219 40,61.4103499 L56.1320284,61.4103499 C56.1320284,58.7351219 54.8280228,56.369091 52.8115192,54.9037651 L52.8115192,54.9037651 Z M45.3773428,58.7216785 L44.0330071,58.7216785 L44.0330071,57.3773428 L45.3773428,57.3773428 L45.3773428,58.7216785 L45.3773428,58.7216785 Z M52.0990213,58.7216785 L50.7546856,58.7216785 L50.7546856,57.3773428 L52.0990213,57.3773428 L52.0990213,58.7216785 L52.0990213,58.7216785 Z" id="Shape"></path>
            </g>
        </g>
    </g>
</svg>