<?xml version="1.0" encoding="UTF-8" standalone="no"?>
<svg width="188px" height="49px" viewBox="0 0 188 49" version="1.1" xmlns="http://www.w3.org/2000/svg" xmlns:xlink="http://www.w3.org/1999/xlink">
    <!-- Generator: sketchtool 3.8.3 (29802) - http://www.bohemiancoding.com/sketch -->
    <title>9238E67B-4762-4BA2-B878-4ADCACF66F2B</title>
    <desc>Created with sketchtool.</desc>
    <defs></defs>
    <g id="v1.4" stroke="none" stroke-width="1" fill="none" fill-rule="evenodd">
        <g id="Main" transform="translate(-42.000000, -14.000000)" fill="#FFFFFF">
            <g id="LipSyncNewLogo" transform="translate(42.000000, 14.000000)">
                <g id="Layer_1">
                    <path d="M21.9767442,26.0869565 L18.9,26.0869565 L18.2406977,26.0869565 L18.2406977,26.0869565 C18.0209302,26.3043478 13.1860465,28.6956522 10.9883721,30.8695652 L10.9883721,27.6086957 L10.9883721,25.6521739 L7.91162791,25.4347826 C4.39534884,25.2173913 2.19767442,22.3913043 2.19767442,20.2173913 L2.19767442,7.82608696 C2.19767442,3.91304348 6.15348837,2.17391304 8.57093023,2.17391304 L34.2837209,2.17391304 C38.2395349,2.17391304 39.5581395,5.43478261 39.5581395,7.82608696 L39.5581395,8.69565217 L41.755814,8.69565217 L41.755814,7.82608696 C41.755814,4.13043478 39.3383721,0 34.2837209,0 L8.57093023,0 C4.83488372,0 0,2.82608696 0,7.82608696 L0,20.2173913 C0,23.6956522 2.19767442,27.173913 8.79069767,27.6086957 L8.79069767,35 C8.79069767,35 18.4604651,28.2608696 18.9,28.2608696 C19.3395349,28.2608696 17.5813953,28.2608696 21.9767442,28.2608696 L21.9767442,26.0869565 L21.9767442,26.0869565 Z" id="Shape"></path>
                    <path d="M51.4255814,48.2608696 L49.6674419,47.173913 C49.6674419,47.173913 40.6569767,41.0869565 38.8988372,40 L32.5255814,40 C28.35,40 23.9546512,37.173913 23.9546512,31.5217391 L23.9546512,19.1304348 C23.9546512,15 26.8116279,10.6521739 32.5255814,10.6521739 L49.4476744,10.6521739 C53.6232558,10.6521739 58.0186047,13.4782609 58.0186047,19.1304348 L58.0186047,31.5217391 C58.0186047,35 55.8209302,38.9130435 51.205814,39.7826087 L51.205814,48.2608696 L51.4255814,48.2608696 Z M39.1186047,37.826087 L39.3383721,37.826087 L39.5581395,38.0434783 C39.9976744,38.2608696 45.9313953,42.173913 49.0081395,44.1304348 L49.0081395,37.826087 L50.1069767,37.826087 C54.0627907,37.3913043 55.8209302,34.3478261 55.8209302,31.5217391 L55.8209302,19.1304348 C55.8209302,14.7826087 52.5244186,12.826087 49.4476744,12.826087 L32.5255814,12.826087 C28.1302326,12.826087 26.1523256,16.0869565 26.1523256,19.1304348 L26.1523256,31.5217391 C26.1523256,35.8695652 29.4488372,37.826087 32.5255814,37.826087 L39.1186047,37.826087 L39.1186047,37.826087 Z" id="Shape"></path>
                    <polygon id="Shape" points="68.127907 15.6521739 70.3255814 15.6521739 70.3255814 33.0434783 81.3139535 33.0434783 81.3139535 35 68.127907 35"></polygon>
                    <polygon id="Shape" points="85.05 15.6521739 87.2476744 15.6521739 87.2476744 35 85.05 35"></polygon>
                    <path d="M93.1813953,15.6521739 L100.433721,15.6521739 C101.532558,15.6521739 102.631395,15.8695652 103.510465,16.0869565 C104.389535,16.3043478 105.268605,16.7391304 105.927907,17.3913043 C106.587209,17.826087 107.026744,18.4782609 107.466279,19.3478261 C107.905814,20 107.905814,20.8695652 107.905814,21.9565217 L107.905814,21.9565217 C107.905814,23.0434783 107.686047,23.9130435 107.246512,24.7826087 C106.806977,25.6521739 106.367442,26.3043478 105.488372,26.7391304 C104.82907,27.173913 103.95,27.6086957 103.07093,28.0434783 C102.19186,28.2608696 101.093023,28.4782609 100.213953,28.4782609 L95.3790698,28.4782609 L95.3790698,35.2173913 L93.1813953,35.2173913 L93.1813953,15.6521739 L93.1813953,15.6521739 Z M100.213953,26.3043478 C101.093023,26.3043478 101.752326,26.3043478 102.411628,26.0869565 C103.07093,25.8695652 103.730233,25.6521739 104.169767,25.2173913 C104.609302,24.7826087 105.048837,24.3478261 105.268605,23.9130435 C105.488372,23.4782609 105.70814,22.826087 105.70814,22.173913 L105.70814,22.173913 C105.70814,20.8695652 105.268605,19.7826087 104.169767,19.1304348 C103.290698,18.4782609 101.972093,18.0434783 100.433721,18.0434783 L95.3790698,18.0434783 L95.3790698,26.5217391 L100.213953,26.5217391 L100.213953,26.3043478 Z" id="Shape"></path>
                    <path d="M118.234884,35.2173913 C116.696512,35.2173913 115.15814,35 114.059302,34.5652174 C112.740698,34.1304348 111.64186,33.2608696 110.323256,32.173913 L111.64186,30.6521739 C112.740698,31.5217391 113.619767,32.173913 114.718605,32.6086957 C115.817442,33.0434783 116.916279,33.2608696 118.234884,33.2608696 C119.553488,33.2608696 120.652326,33.0434783 121.311628,32.3913043 C122.190698,31.7391304 122.410465,31.0869565 122.410465,30 L122.410465,30 C122.410465,29.5652174 122.410465,29.1304348 122.190698,28.6956522 C121.97093,28.2608696 121.751163,28.0434783 121.311628,27.826087 C120.872093,27.6086957 120.432558,27.173913 119.773256,26.9565217 C119.113953,26.7391304 118.234884,26.5217391 117.136047,26.3043478 C116.037209,26.0869565 114.938372,25.8695652 114.27907,25.4347826 C113.4,25.2173913 112.740698,24.7826087 112.301163,24.3478261 C111.861628,23.9130435 111.422093,23.4782609 111.202326,22.826087 C110.982558,22.173913 110.762791,21.5217391 110.762791,20.6521739 L110.762791,20.6521739 C110.762791,20 110.982558,19.1304348 111.202326,18.4782609 C111.422093,17.826087 111.861628,17.173913 112.52093,16.7391304 C113.180233,16.3043478 113.839535,15.8695652 114.498837,15.6521739 C115.377907,15.4347826 116.037209,15.2173913 117.136047,15.2173913 C118.674419,15.2173913 119.773256,15.4347826 120.872093,15.8695652 C121.97093,16.3043478 123.069767,16.9565217 123.948837,17.6086957 L123.069767,19.5652174 C122.190698,18.9130435 121.311628,18.2608696 120.212791,18.0434783 C119.333721,17.6086957 118.234884,17.6086957 117.355814,17.6086957 C116.037209,17.6086957 115.15814,17.826087 114.27907,18.4782609 C113.619767,19.1304348 113.180233,19.7826087 113.180233,20.6521739 L113.180233,20.6521739 C113.180233,21.0869565 113.180233,21.5217391 113.4,21.9565217 C113.619767,22.3913043 113.839535,22.6086957 114.27907,23.0434783 C114.718605,23.2608696 115.15814,23.6956522 115.817442,23.9130435 C116.476744,24.1304348 117.355814,24.3478261 118.454651,24.5652174 C120.652326,25 122.190698,25.6521739 123.289535,26.5217391 C124.388372,27.3913043 124.827907,28.4782609 124.827907,30 L124.827907,30 C124.827907,30.8695652 124.60814,31.5217391 124.388372,32.173913 C123.948837,32.826087 123.509302,33.4782609 123.069767,33.9130435 C122.410465,34.3478261 121.751163,34.7826087 120.872093,35 C119.993023,35.2173913 119.113953,35.2173913 118.234884,35.2173913 L118.234884,35.2173913 Z" id="Shape"></path>
                    <polygon id="Shape" points="135.376744 27.3913043 127.245349 15.6521739 129.882558 15.6521739 136.475581 25.2173913 143.068605 15.6521739 145.705814 15.6521739 137.574419 27.3913043 137.574419 35 135.376744 35"></polygon>
                    <polygon id="Shape" points="149.44186 15.6521739 151.419767 15.6521739 163.726744 31.0869565 163.726744 15.6521739 165.924419 15.6521739 165.924419 35 164.166279 35 151.639535 19.1304348 151.639535 35 149.44186 35"></polygon>
                    <path d="M179.55,35.4347826 C178.231395,35.4347826 176.912791,35.2173913 175.594186,34.5652174 C174.495349,34.1304348 173.396512,33.2608696 172.517442,32.3913043 C171.638372,31.5217391 170.97907,30.4347826 170.539535,29.1304348 C170.1,27.826087 169.880233,26.5217391 169.880233,25.2173913 L169.880233,25.2173913 C169.880233,23.9130435 170.1,22.6086957 170.539535,21.3043478 C170.97907,20 171.638372,19.1304348 172.517442,18.0434783 C173.396512,17.173913 174.495349,16.5217391 175.594186,15.8695652 C176.693023,15.4347826 178.231395,15 179.55,15 C180.42907,15 181.30814,15 181.967442,15.2173913 C182.626744,15.4347826 183.286047,15.6521739 183.945349,15.8695652 C184.604651,16.0869565 185.044186,16.5217391 185.703488,16.7391304 C186.143023,17.173913 186.802326,17.6086957 187.24186,18.0434783 L185.703488,19.5652174 C184.824419,18.6956522 183.945349,18.2608696 183.066279,17.6086957 C182.187209,17.173913 180.868605,16.9565217 179.55,16.9565217 C178.451163,16.9565217 177.572093,17.173913 176.473256,17.6086957 C175.594186,18.0434783 174.715116,18.4782609 174.055814,19.3478261 C173.396512,20 172.737209,20.8695652 172.517442,21.9565217 C172.077907,22.826087 171.85814,23.9130435 171.85814,25 L171.85814,25 C171.85814,26.0869565 172.077907,27.173913 172.517442,28.0434783 C172.956977,28.9130435 173.396512,29.7826087 174.055814,30.6521739 C174.715116,31.3043478 175.594186,31.9565217 176.473256,32.3913043 C177.352326,32.826087 178.451163,33.0434783 179.55,33.0434783 C180.868605,33.0434783 181.967442,32.826087 183.066279,32.3913043 C183.945349,31.9565217 185.044186,31.3043478 185.923256,30.4347826 L187.461628,31.7391304 C187.022093,32.173913 186.362791,32.6086957 185.923256,33.0434783 C185.483721,33.4782609 184.824419,33.9130435 184.165116,34.1304348 C183.505814,34.3478261 182.846512,34.5652174 182.187209,34.7826087 C181.30814,35.2173913 180.42907,35.4347826 179.55,35.4347826 L179.55,35.4347826 Z" id="Shape"></path>
                </g>
            </g>
        </g>
    </g>
</svg>