<?xml version="1.0" encoding="UTF-8" standalone="no"?>
<svg width="134px" height="35px" viewBox="0 0 134 35" version="1.1" xmlns="http://www.w3.org/2000/svg" xmlns:xlink="http://www.w3.org/1999/xlink">
    <!-- Generator: sketchtool 3.8.3 (29802) - http://www.bohemiancoding.com/sketch -->
    <title>6266C0A1-4446-4ABC-8EA8-02F8A31E46A0</title>
    <desc>Created with sketchtool.</desc>
    <defs></defs>
    <g id="v1.4" stroke="none" stroke-width="1" fill="none" fill-rule="evenodd">
        <g id="Edit-profile-error" transform="translate(-15.000000, -10.000000)" fill="#FFFFFF">
            <g id="LipSyncNewLogo" transform="translate(15.000000, 10.000000)">
                <g id="Layer_1">
                    <path d="M15.6976744,18.6335404 L13.5,18.6335404 L13.0290698,18.6335404 L13.0290698,18.6335404 C12.872093,18.7888199 9.41860465,20.4968944 7.84883721,22.0496894 L7.84883721,19.7204969 L7.84883721,18.3229814 L5.65116279,18.1677019 C3.13953488,18.0124224 1.56976744,15.9937888 1.56976744,14.4409938 L1.56976744,5.59006211 C1.56976744,2.79503106 4.39534884,1.55279503 6.12209302,1.55279503 L24.4883721,1.55279503 C27.3139535,1.55279503 28.255814,3.88198758 28.255814,5.59006211 L28.255814,6.21118012 L29.8255814,6.21118012 L29.8255814,5.59006211 C29.8255814,2.95031056 28.0988372,0 24.4883721,0 L6.12209302,0 C3.45348837,0 0,2.01863354 0,5.59006211 L0,14.4409938 C0,16.9254658 1.56976744,19.4099379 6.27906977,19.7204969 L6.27906977,25 C6.27906977,25 13.1860465,20.1863354 13.5,20.1863354 C13.8139535,20.1863354 12.5581395,20.1863354 15.6976744,20.1863354 L15.6976744,18.6335404 L15.6976744,18.6335404 Z" id="Shape"></path>
                    <path d="M36.7325581,34.4720497 L35.4767442,33.6956522 C35.4767442,33.6956522 29.0406977,29.3478261 27.7848837,28.5714286 L23.2325581,28.5714286 C20.25,28.5714286 17.1104651,26.552795 17.1104651,22.515528 L17.1104651,13.6645963 C17.1104651,10.7142857 19.1511628,7.60869565 23.2325581,7.60869565 L35.3197674,7.60869565 C38.3023256,7.60869565 41.4418605,9.62732919 41.4418605,13.6645963 L41.4418605,22.515528 C41.4418605,25 39.872093,27.7950311 36.5755814,28.4161491 L36.5755814,34.4720497 L36.7325581,34.4720497 Z M27.9418605,27.0186335 L28.0988372,27.0186335 L28.255814,27.173913 C28.5697674,27.3291925 32.8081395,30.1242236 35.005814,31.5217391 L35.005814,27.0186335 L35.7906977,27.0186335 C38.6162791,26.7080745 39.872093,24.5341615 39.872093,22.515528 L39.872093,13.6645963 C39.872093,10.5590062 37.5174419,9.16149068 35.3197674,9.16149068 L23.2325581,9.16149068 C20.0930233,9.16149068 18.6802326,11.4906832 18.6802326,13.6645963 L18.6802326,22.515528 C18.6802326,25.621118 21.0348837,27.0186335 23.2325581,27.0186335 L27.9418605,27.0186335 L27.9418605,27.0186335 Z" id="Shape"></path>
                    <polygon id="Shape" points="48.6627907 11.1801242 50.2325581 11.1801242 50.2325581 23.6024845 58.0813953 23.6024845 58.0813953 25 48.6627907 25"></polygon>
                    <polygon id="Shape" points="60.75 11.1801242 62.3197674 11.1801242 62.3197674 25 60.75 25"></polygon>
                    <path d="M66.5581395,11.1801242 L71.7383721,11.1801242 C72.5232558,11.1801242 73.3081395,11.3354037 73.9360465,11.4906832 C74.5639535,11.6459627 75.1918605,11.9565217 75.6627907,12.4223602 C76.1337209,12.7329193 76.4476744,13.1987578 76.7616279,13.8198758 C77.0755814,14.2857143 77.0755814,14.9068323 77.0755814,15.6832298 L77.0755814,15.6832298 C77.0755814,16.4596273 76.9186047,17.0807453 76.6046512,17.7018634 C76.2906977,18.3229814 75.9767442,18.7888199 75.3488372,19.0993789 C74.877907,19.4099379 74.25,19.7204969 73.622093,20.0310559 C72.994186,20.1863354 72.2093023,20.3416149 71.5813953,20.3416149 L68.127907,20.3416149 L68.127907,25.1552795 L66.5581395,25.1552795 L66.5581395,11.1801242 L66.5581395,11.1801242 Z M71.5813953,18.7888199 C72.2093023,18.7888199 72.6802326,18.7888199 73.1511628,18.6335404 C73.622093,18.4782609 74.0930233,18.3229814 74.4069767,18.0124224 C74.7209302,17.7018634 75.0348837,17.3913043 75.1918605,17.0807453 C75.3488372,16.7701863 75.505814,16.3043478 75.505814,15.8385093 L75.505814,15.8385093 C75.505814,14.9068323 75.1918605,14.1304348 74.4069767,13.6645963 C73.7790698,13.1987578 72.8372093,12.8881988 71.7383721,12.8881988 L68.127907,12.8881988 L68.127907,18.9440994 L71.5813953,18.9440994 L71.5813953,18.7888199 Z" id="Shape"></path>
                    <path d="M84.4534884,25.1552795 C83.3546512,25.1552795 82.255814,25 81.4709302,24.689441 C80.5290698,24.378882 79.744186,23.757764 78.8023256,22.9813665 L79.744186,21.8944099 C80.5290698,22.515528 81.1569767,22.9813665 81.9418605,23.2919255 C82.7267442,23.6024845 83.5116279,23.757764 84.4534884,23.757764 C85.3953488,23.757764 86.1802326,23.6024845 86.6511628,23.136646 C87.2790698,22.6708075 87.4360465,22.2049689 87.4360465,21.4285714 L87.4360465,21.4285714 C87.4360465,21.1180124 87.4360465,20.8074534 87.2790698,20.4968944 C87.122093,20.1863354 86.9651163,20.0310559 86.6511628,19.8757764 C86.3372093,19.7204969 86.0232558,19.4099379 85.5523256,19.2546584 C85.0813953,19.0993789 84.4534884,18.9440994 83.6686047,18.7888199 C82.8837209,18.6335404 82.0988372,18.4782609 81.627907,18.1677019 C81,18.0124224 80.5290698,17.7018634 80.2151163,17.3913043 C79.9011628,17.0807453 79.5872093,16.7701863 79.4302326,16.3043478 C79.2732558,15.8385093 79.1162791,15.3726708 79.1162791,14.7515528 L79.1162791,14.7515528 C79.1162791,14.2857143 79.2732558,13.6645963 79.4302326,13.1987578 C79.5872093,12.7329193 79.9011628,12.2670807 80.372093,11.9565217 C80.8430233,11.6459627 81.3139535,11.3354037 81.7848837,11.1801242 C82.4127907,11.0248447 82.8837209,10.8695652 83.6686047,10.8695652 C84.7674419,10.8695652 85.5523256,11.0248447 86.3372093,11.3354037 C87.122093,11.6459627 87.9069767,12.1118012 88.5348837,12.5776398 L87.9069767,13.9751553 C87.2790698,13.5093168 86.6511628,13.0434783 85.8662791,12.8881988 C85.2383721,12.5776398 84.4534884,12.5776398 83.8255814,12.5776398 C82.8837209,12.5776398 82.255814,12.7329193 81.627907,13.1987578 C81.1569767,13.6645963 80.8430233,14.1304348 80.8430233,14.7515528 L80.8430233,14.7515528 C80.8430233,15.0621118 80.8430233,15.3726708 81,15.6832298 C81.1569767,15.9937888 81.3139535,16.1490683 81.627907,16.4596273 C81.9418605,16.6149068 82.255814,16.9254658 82.7267442,17.0807453 C83.1976744,17.2360248 83.8255814,17.3913043 84.6104651,17.5465839 C86.1802326,17.8571429 87.2790698,18.3229814 88.0639535,18.9440994 C88.8488372,19.5652174 89.1627907,20.3416149 89.1627907,21.4285714 L89.1627907,21.4285714 C89.1627907,22.0496894 89.005814,22.515528 88.8488372,22.9813665 C88.5348837,23.447205 88.2209302,23.9130435 87.9069767,24.2236025 C87.4360465,24.5341615 86.9651163,24.8447205 86.3372093,25 C85.7093023,25.1552795 85.0813953,25.1552795 84.4534884,25.1552795 L84.4534884,25.1552795 Z" id="Shape"></path>
                    <polygon id="Shape" points="96.6976744 19.5652174 90.8895349 11.1801242 92.7732558 11.1801242 97.4825581 18.0124224 102.19186 11.1801242 104.075581 11.1801242 98.2674419 19.5652174 98.2674419 25 96.6976744 25"></polygon>
                    <polygon id="Shape" points="106.744186 11.1801242 108.156977 11.1801242 116.947674 22.2049689 116.947674 11.1801242 118.517442 11.1801242 118.517442 25 117.261628 25 108.313953 13.6645963 108.313953 25 106.744186 25"></polygon>
                    <path d="M128.25,25.310559 C127.30814,25.310559 126.366279,25.1552795 125.424419,24.689441 C124.639535,24.378882 123.854651,23.757764 123.226744,23.136646 C122.598837,22.515528 122.127907,21.7391304 121.813953,20.8074534 C121.5,19.8757764 121.343023,18.9440994 121.343023,18.0124224 L121.343023,18.0124224 C121.343023,17.0807453 121.5,16.1490683 121.813953,15.2173913 C122.127907,14.2857143 122.598837,13.6645963 123.226744,12.8881988 C123.854651,12.2670807 124.639535,11.8012422 125.424419,11.3354037 C126.209302,11.0248447 127.30814,10.7142857 128.25,10.7142857 C128.877907,10.7142857 129.505814,10.7142857 129.976744,10.8695652 C130.447674,11.0248447 130.918605,11.1801242 131.389535,11.3354037 C131.860465,11.4906832 132.174419,11.8012422 132.645349,11.9565217 C132.959302,12.2670807 133.430233,12.5776398 133.744186,12.8881988 L132.645349,13.9751553 C132.017442,13.3540373 131.389535,13.0434783 130.761628,12.5776398 C130.133721,12.2670807 129.19186,12.1118012 128.25,12.1118012 C127.465116,12.1118012 126.837209,12.2670807 126.052326,12.5776398 C125.424419,12.8881988 124.796512,13.1987578 124.325581,13.8198758 C123.854651,14.2857143 123.383721,14.9068323 123.226744,15.6832298 C122.912791,16.3043478 122.755814,17.0807453 122.755814,17.8571429 L122.755814,17.8571429 C122.755814,18.6335404 122.912791,19.4099379 123.226744,20.0310559 C123.540698,20.6521739 123.854651,21.2732919 124.325581,21.8944099 C124.796512,22.3602484 125.424419,22.826087 126.052326,23.136646 C126.680233,23.447205 127.465116,23.6024845 128.25,23.6024845 C129.19186,23.6024845 129.976744,23.447205 130.761628,23.136646 C131.389535,22.826087 132.174419,22.3602484 132.802326,21.7391304 L133.901163,22.6708075 C133.587209,22.9813665 133.116279,23.2919255 132.802326,23.6024845 C132.488372,23.9130435 132.017442,24.2236025 131.546512,24.378882 C131.075581,24.5341615 130.604651,24.689441 130.133721,24.8447205 C129.505814,25.1552795 128.877907,25.310559 128.25,25.310559 L128.25,25.310559 Z" id="Shape"></path>
                </g>
            </g>
        </g>
    </g>
</svg>