<?xml version="1.0" encoding="UTF-8" standalone="no"?>
<svg width="15px" height="18px" viewBox="0 0 15 18" version="1.1" xmlns="http://www.w3.org/2000/svg" xmlns:xlink="http://www.w3.org/1999/xlink">
    <!-- Generator: sketchtool 3.8.3 (29802) - http://www.bohemiancoding.com/sketch -->
    <title>99735236-DCE1-4F6C-92C5-E2581FBE085E</title>
    <desc>Created with sketchtool.</desc>
    <defs></defs>
    <g id="v1.4" stroke="none" stroke-width="1" fill="none" fill-rule="evenodd">
        <g id="Main-Scroll-+popover" transform="translate(-726.000000, -394.000000)" fill="#28B6FF">
            <g id="Group-5" transform="translate(682.000000, 383.000000)">
                <g id="logo_apple" transform="translate(44.000000, 11.000000)">
                    <path d="M12.4142704,9.5421695 C12.3936071,7.27535016 14.2946243,6.17253516 14.3815523,6.12119237 C13.3049268,4.57176543 11.6361929,4.36006434 11.0497847,4.34318452 C9.6482477,4.19759606 8.2887497,5.17099909 7.57479949,5.17099909 C6.84659878,5.17099909 5.74717246,4.35725103 4.56224312,4.38116411 C3.03743928,4.40437387 1.61096391,5.27579465 0.828611283,6.62899366 C-0.785970728,9.38814113 0.418196791,13.4428149 1.96508891,15.6730613 C2.73889123,16.7660297 3.64308566,17.9848935 4.82658995,17.9419906 C5.98444333,17.8955711 6.41694611,17.213345 7.81420794,17.213345 C9.19864433,17.213345 9.60478367,17.9419906 10.8118013,17.9138576 C12.0544452,17.8955711 12.8367978,16.8173725 13.5835242,15.7145575 C14.4777432,14.4640441 14.8368559,13.2297071 14.8511064,13.1664078 C14.8226054,13.1572646 12.4384962,12.2591174 12.4142704,9.5421695" id="Fill-2"></path>
                    <path d="M10.1341899,2.87604671 C10.7569369,2.10731151 11.1830269,1.06146591 11.0647477,0.0001471413 C10.1634034,0.0395333912 9.03618859,0.615557296 8.38707817,1.36741267 C7.81278289,2.02994566 7.29976478,3.11588084 7.43229446,4.13711003 C8.44479271,4.21166257 9.48436692,3.63282537 10.1341899,2.87604671" id="Fill-3"></path>
                </g>
            </g>
        </g>
    </g>
</svg>