<?xml version="1.0" encoding="UTF-8" standalone="no"?>
<svg width="122px" height="36px" viewBox="0 0 122 36" version="1.1" xmlns="http://www.w3.org/2000/svg" xmlns:xlink="http://www.w3.org/1999/xlink">
    <!-- Generator: sketchtool 39.1 (31721) - http://www.bohemiancoding.com/sketch -->
    <title>BD12CF8A-7987-44A9-B3D0-4B3236906DEF</title>
    <desc>Created with sketchtool.</desc>
    <defs>
        <rect id="path-1" x="0" y="0" width="122" height="35.9342246" rx="4.09090909"></rect>
        <mask id="mask-2" maskContentUnits="userSpaceOnUse" maskUnits="objectBoundingBox" x="0" y="0" width="122" height="35.9342246" fill="white">
            <use xlink:href="#path-1"></use>
        </mask>
        <path d="M9.13726648,3.09803588 C9.84145832,1.86335265 10.9853744,1.86717305 11.6874077,3.09803588 L21.7134995,20.6766092 C22.4177118,21.9112924 21.8424936,22.9122009 20.4150666,22.9122009 L0.40993585,22.9122009 C-1.01138113,22.9122009 -1.59054699,21.907472 -0.888534088,20.6766092 L9.13726648,3.09803588 Z" id="path-3"></path>
    </defs>
    <g id="v1.4" stroke="none" stroke-width="1" fill="none" fill-rule="evenodd">
        <g id="Main-Scroll-+popover" transform="translate(-861.000000, -471.000000)">
            <g id="Playstore" transform="translate(861.000000, 471.000000)">
                <use id="background" stroke="#28B6FF" mask="url(#mask-2)" stroke-width="1.63636364" fill="#FFFFFF" xlink:href="#path-1"></use>
                <g id="get-it-on" transform="translate(37.412239, 6.054545)" fill="#28B6FF">
                    <path d="M27.2387357,5.89090909 C28.8699628,5.89090909 30.1923336,4.57218417 30.1923336,2.94545455 C30.1923336,1.31872492 28.8699628,0 27.2387357,0 C25.6075087,0 24.2851379,1.31872492 24.2851379,2.94545455 C24.2851379,4.57218417 25.6075087,5.89090909 27.2387357,5.89090909 Z M27.2387357,4.99090909 C28.3715323,4.99090909 29.2898453,4.0751279 29.2898453,2.94545455 C29.2898453,1.81578119 28.3715323,0.9 27.2387357,0.9 C26.1059391,0.9 25.1876261,1.81578119 25.1876261,2.94545455 C25.1876261,4.0751279 26.1059391,4.99090909 27.2387357,4.99090909 Z" id="o"></path>
                    <path d="M7.21990585,3.27272727 L7.21990585,5.07272731 L7.21965756,5.07272731 L7.21965756,5.72727276 L9.59919301,5.72727273 L9.59919301,5.07272727 L7.21990585,5.07272731 L7.21990585,5.72727273 L6.31741762,5.72727273 L6.31741762,0.613636364 L6.31741762,0.245454545 L9.59919301,0.245454545 L9.59919301,0.9 L7.21990585,0.9 L7.21990585,2.61818182 L9.35305985,2.61818182 L9.35305985,3.27272727 L7.21990585,3.27272727 Z" id="e"></path>
                    <path d="M12.798924,0.9 L12.798924,5.72727273 L11.8964358,5.72727273 L11.8964358,0.9 L10.5016812,0.9 L10.5016812,0.245454545 L14.1936785,0.245454545 L14.1936785,0.9 L12.798924,0.9 Z" id="t"></path>
                    <path d="M20.8392737,0.9 L20.8392737,5.72727273 L19.9367855,5.72727273 L19.9367855,0.9 L18.5420309,0.9 L18.5420309,0.245454545 L22.2340282,0.245454545 L22.2340282,0.9 L20.8392737,0.9 Z" id="t"></path>
                    <rect id="i" x="16.8190989" y="0.245454545" width="0.902488231" height="5.48181818"></rect>
                    <path d="M31.4640215,0.245454545 L30.930733,0.245454545 L30.930733,5.72727273 L31.8332213,5.72727273 L31.8332213,1.44878049 L34.4586416,5.72727273 L34.9098857,5.72727273 L35.3611298,5.72727273 L35.3611298,0.245454545 L34.4586416,0.245454545 L34.4586416,4.25654102 L31.99731,0.245454545 L31.4640215,0.245454545 Z" id="n"></path>
                    <g id="g" transform="translate(0.000000, 0.081818)">
                        <polygon id="Rectangle-1" points="2.9358157 2.63210001 5.40679391 2.63210001 5.38232878 3.4119815 2.9358157 3.4119815"></polygon>
                        <path d="M5.61314333,2.63210001 C5.61322522,2.64174328 5.61326623,2.65140616 5.61326623,2.66108853 C5.88477184,4.64706359 4.52700487,5.79061051 2.899118,5.77599725 C1.29798088,5.77371023 0,4.48299623 0,2.88799863 C0,1.29300103 1.29797934,0 2.899118,0 C3.73604092,0 4.43959705,0.291277734 4.92054494,0.797115986 L4.35511593,1.36037633 C4.00244089,1.00117214 3.50153715,0.804252782 2.92358313,0.804252782 C1.76833119,0.804252782 0.831814447,1.73717757 0.831814447,2.88799863 C0.831814447,4.03881968 1.76833119,4.97174447 2.92358313,4.97174447 C4.07883507,4.97174447 4.89904688,4.30643664 4.89732667,2.88799863 C4.89928056,2.80034008 4.8972314,2.71501208 4.89135469,2.63210001 L5.61314333,2.63210001 Z" id="Oval-1"></path>
                    </g>
                </g>
                <g id="googleplay" transform="translate(37.002017, 15.709091)" fill="#28B6FF">
                    <g id="big-P" transform="translate(51.195696, 0.409091)">
                        <path d="M0.410221923,2.875616e-07 L5.06155549,0 C5.06155549,0 7.73920001,0.454314631 7.7391998,3.52061989 C7.73919959,6.58692515 5.06155549,7.04123978 5.06155549,7.04123978 L0.410221923,7.04124007 L0.410221923,2.875616e-07 Z M1.31271015,1.70320195 L4.47026263,1.70320195 C4.47026263,1.70320195 5.9071957,1.70320195 5.9071957,3.59251007 C5.9071957,5.48181818 4.47026263,5.48181818 4.47026263,5.48181818 L1.31271015,5.48181818 L1.31271015,1.70320195 Z" id="Combined-Shape"></path>
                        <rect id="Rectangle-6" x="0" y="0" width="1.64088769" height="11.4545455"></rect>
                    </g>
                    <rect id="y" x="59.8924008" y="0.409090909" width="1.64088769" height="11.4545455"></rect>
                    <path d="M67.6150762,11.0446473 L67.6150762,11.8599609 L69.2559639,11.8599609 L69.2559639,6.8879611 C69.2560772,6.88478487 69.2561342,6.88158796 69.2561342,6.87837025 C69.2561342,6.2173129 68.7703402,4.25454546 65.9168215,4.25454545 C63.6218949,4.25454545 62.8570627,5.82690874 62.8570627,5.82690874 L64.2238549,6.63246626 C64.2238549,6.63246626 64.5538023,5.82690874 66.0479003,5.82690874 C67.1354255,5.82690874 67.4981808,6.64590899 67.6150762,7.09164036 L67.6150762,7.42819502 C67.1383948,7.19715366 66.1069469,6.83327558 64.6342771,7.0516646 C62.5545241,7.36008079 62.6834796,9.30034639 62.6834796,9.46078658 C62.6834796,9.62122676 62.6848418,12.0004263 65.2993254,11.8375888 C66.4405499,11.7665101 67.1631179,11.416518 67.6150762,11.0446473 Z M67.4978585,8.59114879 C67.4978585,8.59114879 64.3366659,7.74144626 64.2267793,9.51244229 C64.1168927,11.2834383 67.2594972,10.4330567 67.5402828,9.17761896 C67.5402828,8.77839576 67.4978585,8.59114879 67.4978585,8.59114879 Z" id="a"></path>
                    <path d="M72.3349779,11.4290526 L70.804304,15.0545455 L72.4451917,15.0545455 L76.884562,4.53963068 L75.2436743,4.53963068 L73.1554217,9.48578216 L71.0504371,4.5 L69.4095494,4.5 L72.3349779,11.4290526 Z" id="y"></path>
                    <path d="M47.5221872,7.17755368 C47.5221872,7.17755368 46.8027428,4.25454545 44.051712,4.25454545 C41.3006812,4.25454545 40.3658373,6.72509285 40.3658373,8.18412068 C40.3658373,9.698461 41.543604,12.0302494 44.2176494,12.0302494 C46.3936831,12.0302494 47.4561712,10.3166198 47.4561712,10.3166198 L46.1394918,9.42738396 C46.1394918,9.42738396 45.4497938,10.5135349 44.2280205,10.5073263 C42.6677201,10.4993974 42.3325546,9.31640312 42.3325546,9.31640312 L47.5221872,7.17755368 Z M45.5476417,6.57164888 C45.5476417,6.57164888 44.8947139,5.58097429 43.8933535,5.76367658 C41.7751585,6.15014988 42.0417153,7.99867302 42.0417153,7.99867302 L45.5476417,6.57164888 Z" id="e"></path>
                    <rect id="i" x="37.9045057" y="0.409090909" width="1.73596059" height="11.4304813"></rect>
                    <path d="M35.1264743,4.50296696 L35.1264743,5.21629444 C35.1264743,5.21629444 34.4288693,4.21506099 32.977515,4.25575303 C31.1655663,4.30655517 29.2898453,5.70316749 29.2898453,8.1448453 C29.2898453,10.5865231 31.2818421,12.0187588 32.9581191,12.0187565 C34.504209,12.0187543 35.1266737,11.0472152 35.1266737,11.0472152 L35.1266737,11.829915 C35.1266737,12.3886099 34.9166592,14.0207753 33.1176743,14.0207775 C31.5379282,14.0207793 31.0884313,12.6104228 31.0884313,12.6104228 L29.6146399,13.228532 C29.6146399,13.228532 30.451108,15.51696 33.0410878,15.51696 C35.6310676,15.51696 36.7312007,13.5717937 36.7312007,11.7290751 L36.7312007,4.51679184 L35.1264743,4.50296696 Z M33.0951371,10.5531346 C34.2653695,10.5531346 35.2140302,9.48412465 35.2140302,8.16543406 C35.2140302,6.84674346 34.2653695,5.77773352 33.0951371,5.77773352 C31.9249048,5.77773352 30.9762441,6.84674346 30.9762441,8.16543406 C30.9762441,9.48412465 31.9249048,10.5531346 33.0951371,10.5531346 Z" id="g"></path>
                    <path d="M24.6631406,12.0272727 C26.8203159,12.0272727 28.569052,10.2872885 28.569052,8.14090909 C28.569052,5.99452972 26.8203159,4.25454545 24.6631406,4.25454545 C22.5059654,4.25454545 20.7572293,5.99452972 20.7572293,8.14090909 C20.7572293,10.2872885 22.5059654,12.0272727 24.6631406,12.0272727 Z M24.6376118,10.5032086 C25.8501417,10.5032086 26.8330914,9.44557106 26.8330914,8.14090909 C26.8330914,6.83624712 25.8501417,5.77860963 24.6376118,5.77860963 C23.4250819,5.77860963 22.4421322,6.83624712 22.4421322,8.14090909 C22.4421322,9.44557106 23.4250819,10.5032086 24.6376118,10.5032086 Z" id="o"></path>
                    <path d="M16.212569,12.0272727 C18.3697443,12.0272727 20.1184803,10.2872885 20.1184803,8.14090909 C20.1184803,5.99452972 18.3697443,4.25454545 16.212569,4.25454545 C14.0553938,4.25454545 12.3066577,5.99452972 12.3066577,8.14090909 C12.3066577,10.2872885 14.0553938,12.0272727 16.212569,12.0272727 Z M16.1870402,10.5032086 C17.3995701,10.5032086 18.3825197,9.44557106 18.3825197,8.14090909 C18.3825197,6.83624712 17.3995701,5.77860963 16.1870402,5.77860963 C14.9745103,5.77860963 13.9915606,6.83624712 13.9915606,8.14090909 C13.9915606,9.44557106 14.9745103,10.5032086 16.1870402,10.5032086 Z" id="o"></path>
                    <g id="big-g">
                        <polygon id="Rectangle-1" points="6.12691971 5.48663102 11.2837438 5.48663102 11.2326861 7.11229947 6.12691971 7.11229947"></polygon>
                        <path d="M11.7143861,5.48663102 C11.714557,5.50673248 11.7146426,5.52687481 11.7146426,5.54705778 C12.281263,9.68683677 9.44766233,12.0705684 6.05033322,12.040107 C2.70882967,12.0353396 0,9.3448372 0,6.02005348 C0,2.69526975 2.70882645,0 6.05033322,0 C7.79695497,0 9.26524601,0.607170489 10.2689634,1.66159389 L9.0889376,2.83571404 C8.35292012,2.08695038 7.30755579,1.67647059 6.10139088,1.67647059 C3.6904303,1.67647059 1.73596059,3.62115889 1.73596059,6.02005348 C1.73596059,8.41894806 3.6904303,10.3636364 6.10139088,10.3636364 C8.51235146,10.3636364 10.2240978,8.9767975 10.2205078,6.02005348 C10.2245855,5.83732863 10.220309,5.6594618 10.2080446,5.48663102 L11.7143861,5.48663102 Z" id="Oval-1"></path>
                    </g>
                </g>
                <g id="logo_play" transform="translate(8.942838, 5.381818)">
                    <mask id="mask-4" fill="white">
                        <use xlink:href="#path-3"></use>
                    </mask>
                    <use id="yellow" fill="#28B6FF" transform="translate(10.412164, 12.544968) rotate(-270.000000) translate(-10.412164, -12.544968) " xlink:href="#path-3"></use>
                    <polygon id="red" fill-opacity="0.1" fill="#FFFFFF" mask="url(#mask-4)" points="17.7621038 5.65399268 23.5827691 17.0017052 -1.03720309 25.0109091"></polygon>
                </g>
            </g>
        </g>
    </g>
</svg>