<?xml version="1.0" encoding="UTF-8" standalone="no"?>
<svg width="102px" height="103px" viewBox="0 0 102 103" version="1.1" xmlns="http://www.w3.org/2000/svg" xmlns:xlink="http://www.w3.org/1999/xlink">
    <!-- Generator: sketchtool 3.8.3 (29802) - http://www.bohemiancoding.com/sketch -->
    <title>50D52E08-75E2-4029-BB4A-D737487C8C70</title>
    <desc>Created with sketchtool.</desc>
    <defs></defs>
    <g id="v1.4" stroke="none" stroke-width="1" fill="none" fill-rule="evenodd">
        <g id="Success" transform="translate(-460.000000, -239.000000)" stroke="#F8911A">
            <g id="Group" transform="translate(461.000000, 240.000000)">
                <path d="M98.2015681,45.851178 C95.8035447,43.4417421 94.9033443,38.8953153 96.2012274,35.7473767 C97.4987966,32.599438 95.9972071,28.9570621 92.8637689,27.6534882 C89.7306447,26.349599 87.166894,22.495006 87.166894,19.0875509 C87.166894,15.6804111 84.3919039,12.8928945 81.0004585,12.8928945 C77.6090132,12.8928945 73.7721758,10.3172797 72.4742927,7.16934112 C71.1764097,4.02171783 67.5508118,2.51286415 64.4176875,3.81675338 C61.2842494,5.12064261 56.7584511,4.21627639 54.3604277,1.80684046 C51.9620905,-0.602280152 48.0379951,-0.602280152 45.6396579,1.80684046 C43.2416345,4.21627639 38.7158362,5.12064261 35.5823981,3.81675338 C32.4492738,2.51286415 28.8236759,4.02171783 27.5257929,7.16934112 C26.2279098,10.3172797 22.3910724,12.8928945 18.9996271,12.8928945 C15.6081817,12.8928945 12.8331916,15.6804111 12.8331916,19.0875509 C12.8331916,22.495006 10.2697548,26.349599 7.13631667,27.6534882 C4.00287854,28.9570621 2.50128904,32.599438 3.79917211,35.7473767 C5.09705517,38.8949999 4.1965409,43.4417421 1.79851753,45.851178 C-0.599505843,48.2602986 -0.599505843,52.2028687 1.79851753,54.6119893 C4.1965409,57.0214252 5.09705517,61.5681673 3.79917211,64.7157906 C2.50128904,67.8637292 4.00287854,71.5061052 7.13631667,72.8099944 C10.2697548,74.1138836 12.8331916,77.9684766 12.8331916,81.3756164 C12.8331916,84.7827562 15.6081817,87.5705881 18.9996271,87.5705881 C22.3910724,87.5705881 26.2279098,90.1458876 27.5257929,93.2938262 C28.8236759,96.4417648 32.4492738,97.9503031 35.5823981,96.6464139 C38.7158362,95.3425247 43.2416345,96.2468909 45.6396579,98.6563268 C48.0379951,101.065447 51.9620905,101.065447 54.3604277,98.6563268 C56.7584511,96.2468909 61.2842494,95.3425247 64.4176875,96.6464139 C67.5508118,97.9503031 71.1764097,96.4417648 72.4742927,93.2938262 C73.7721758,90.1458876 77.6090132,87.5705881 81.0004585,87.5705881 C84.3919039,87.5705881 87.166894,84.7827562 87.166894,81.3756164 C87.166894,77.9684766 89.7306447,74.1138836 92.8637689,72.8099944 C95.9972071,71.5061052 97.4987966,67.8637292 96.2012274,64.7157906 C94.9033443,61.5681673 95.8035447,57.0214252 98.2015681,54.6119893 C100.599591,52.2028687 100.599591,48.2602986 98.2015681,45.851178" id="Page-1" stroke-width="2"></path>
                <polyline id="Path-631" stroke-width="5" stroke-linecap="round" points="28 49.9341472 42.2892897 64.8682944 72.0200005 35"></polyline>
            </g>
        </g>
    </g>
</svg>