<?xml version="1.0" encoding="UTF-8" standalone="no"?><svg width="188" height="49" viewBox="0 0 188 49" xmlns="http://www.w3.org/2000/svg" xmlns:xlink="http://www.w3.org/1999/xlink"><svg width="188" height="49" viewBox="0 0 188 49" id="svg--logo"><title>9238E67B-4762-4BA2-B878-4ADCACF66F2B</title><g fill="#FFF" fill-rule="evenodd"><path d="M21.977 26.087H18.24c-.22.217-5.054 2.609-7.252 4.783v-5.218l-3.076-.217c-3.517-.218-5.714-3.044-5.714-5.218V7.827c0-3.914 3.955-5.653 6.373-5.653h25.713c3.956 0 5.274 3.26 5.274 5.652v.87h2.198v-.87C41.756 4.13 39.338 0 34.284 0H8.57C4.835 0 0 2.826 0 7.826v12.391c0 3.479 2.198 6.957 8.79 7.392V35s9.67-6.74 10.11-6.74h3.077v-2.173z"/><path d="M51.426 48.26l-1.759-1.086S40.657 41.087 38.9 40h-6.373c-4.176 0-8.571-2.826-8.571-8.478V19.13c0-4.13 2.857-8.478 8.57-8.478h16.923c4.175 0 8.57 2.826 8.57 8.478v12.392c0 3.478-2.197 7.391-6.812 8.26v8.479h.22zM39.119 37.827h.22l.22.217c.439.218 6.372 4.13 9.45 6.087v-6.304h1.098c3.956-.435 5.714-3.478 5.714-6.304V19.13c0-4.347-3.297-6.304-6.373-6.304H32.526c-4.396 0-6.374 3.261-6.374 6.304v12.392c0 4.348 3.297 6.304 6.374 6.304h6.593zM68.128 15.652h2.198v17.391h10.988V35H68.128zM85.05 15.652h2.198V35H85.05zM93.181 15.652h7.253c1.099 0 2.197.218 3.076.435.88.217 1.759.652 2.418 1.304.66.435 1.099 1.087 1.538 1.957.44.652.44 1.522.44 2.609 0 1.086-.22 1.956-.66 2.826-.439.87-.879 1.521-1.758 1.956-.659.435-1.538.87-2.417 1.304-.88.218-1.978.435-2.857.435h-4.835v6.74h-2.198V15.651zm7.033 10.652c.879 0 1.538 0 2.198-.217.659-.217 1.318-.435 1.758-.87.44-.434.879-.87 1.099-1.304.22-.435.44-1.087.44-1.74 0-1.303-.44-2.39-1.54-3.043-.878-.652-2.197-1.087-3.735-1.087h-5.055v8.479h4.835v-.218zM118.235 35.217c-1.538 0-3.077-.217-4.176-.652-1.318-.435-2.417-1.304-3.736-2.391l1.319-1.522c1.099.87 1.978 1.522 3.077 1.957 1.098.434 2.197.652 3.516.652 1.318 0 2.417-.218 3.077-.87.879-.652 1.098-1.304 1.098-2.391 0-.435 0-.87-.22-1.304-.22-.435-.439-.653-.878-.87-.44-.217-.88-.652-1.539-.87-.659-.217-1.538-.434-2.637-.652-1.099-.217-2.198-.434-2.857-.87a4.261 4.261 0 0 1-1.978-1.086c-.44-.435-.879-.87-1.099-1.522-.22-.652-.44-1.304-.44-2.174 0-.652.22-1.522.44-2.174.22-.652.66-1.304 1.319-1.739.66-.435 1.319-.87 1.978-1.087.879-.217 1.538-.435 2.637-.435 1.538 0 2.637.218 3.736.653 1.099.434 2.198 1.087 3.077 1.739l-.88 1.956c-.878-.652-1.757-1.304-2.856-1.522-.88-.434-1.978-.434-2.857-.434-1.319 0-2.198.217-3.077.87-.66.651-1.099 1.304-1.099 2.173 0 .435 0 .87.22 1.305.22.434.44.652.88 1.086.439.218.878.653 1.537.87.66.217 1.539.435 2.638.652 2.197.435 3.736 1.087 4.835 1.957 1.098.87 1.538 1.956 1.538 3.478 0 .87-.22 1.522-.44 2.174-.44.652-.879 1.304-1.318 1.739-.66.435-1.319.87-2.198 1.087-.879.217-1.758.217-2.637.217zM135.377 27.391l-8.132-11.739h2.638l6.593 9.565 6.593-9.565h2.637l-8.132 11.74V35h-2.197zM149.442 15.652h1.978l12.307 15.435V15.652h2.197V35h-1.758L151.64 19.13V35h-2.198zM179.55 35.435c-1.319 0-2.637-.218-3.956-.87-1.099-.435-2.197-1.304-3.077-2.174-.879-.87-1.538-1.956-1.977-3.26a12.19 12.19 0 0 1-.66-3.914c0-1.304.22-2.608.66-3.913.44-1.304 1.098-2.174 1.977-3.26.88-.87 1.978-1.522 3.077-2.174 1.099-.435 2.637-.87 3.956-.87.88 0 1.758 0 2.417.217l1.978.653c.66.217 1.1.652 1.758.87.44.434 1.1.869 1.539 1.303l-1.539 1.522c-.879-.87-1.758-1.304-2.637-1.956-.879-.435-2.197-.652-3.516-.652-1.099 0-1.978.217-3.077.652-.879.434-1.758.87-2.417 1.739-.66.652-1.319 1.522-1.539 2.609-.44.87-.659 1.956-.659 3.043 0 1.087.22 2.174.66 3.043.439.87.879 1.74 1.538 2.61a9.754 9.754 0 0 0 2.417 1.738c.88.435 1.978.652 3.077.652 1.319 0 2.417-.217 3.516-.652.88-.434 1.978-1.087 2.857-1.956l1.539 1.304c-.44.435-1.1.87-1.539 1.304-.44.435-1.099.87-1.758 1.087l-1.978.653c-.879.434-1.758.652-2.637.652z"/></g></svg></svg>