<?xml version="1.0" encoding="UTF-8" standalone="no"?><svg width="149" height="42" viewBox="0 0 149 42" xmlns="http://www.w3.org/2000/svg" xmlns:xlink="http://www.w3.org/1999/xlink"><svg width="149" height="30" viewBox="0 0 149 30" id="svg--lip-sync-logo"><title>lipSync_logo_editable</title><g transform="translate(-1)" fill="#28B6FF" fill-rule="evenodd"><path d="M2.21 13.052V5.317c0-3.36 3.12-3.503 3.478-3.506h15.78c3.328 0 3.473 3.143 3.477 3.507v7.74c0 3.36-3.13 3.505-3.48 3.506h-9.846s-3.97 2.657-5.284 3.543v-3.543h-.66c-3.324 0-3.465-3.157-3.467-3.51zM5.676.625C3.437.662 1.03 2.135 1.03 5.317v7.74c.03 2.127 1.35 4.377 4.13 4.642v4.625s6.532-4.39 6.815-4.574h9.494c2.247-.028 4.65-1.51 4.65-4.693V5.312c-.03-2.265-1.5-4.687-4.65-4.687H5.676z"/><path d="M38.904 23.615h-.657v3.542c-1.315-.886-5.284-3.542-5.284-3.542h-9.846c-.35-.002-3.48-.146-3.48-3.506v-7.74c.003-.365.148-3.507 3.475-3.507h15.78c.36.003 3.48.146 3.48 3.506v7.733c-.002.355-.143 3.512-3.468 3.512zM23.112 7.675c-3.15 0-4.62 2.423-4.652 4.688v7.746c0 3.18 2.404 4.664 4.652 4.692h9.494c.283.183 6.818 4.574 6.818 4.574V24.75c2.777-.264 4.098-2.514 4.125-4.64v-7.74c0-3.184-2.405-4.657-4.646-4.694H23.112zM53.265 5.436h1.494v11.968h7.454V18.8h-8.95V5.435zM67.566 5.435h1.495V18.8h-1.494V5.434zM80.176 12.728c.544 0 1.04-.07 1.49-.21a3.46 3.46 0 0 0 1.157-.604c.322-.262.568-.57.74-.927.17-.36.256-.76.256-1.208v-.04c0-.957-.327-1.682-.978-2.173-.65-.49-1.515-.738-2.59-.738h-3.357v5.898h3.28zM75.4 5.435h4.957c.743 0 1.422.1 2.034.296.61.2 1.136.48 1.57.84.436.364.77.807 1.004 1.328.232.522.35 1.114.35 1.776v.038c0 .725-.14 1.36-.417 1.9-.278.54-.652.996-1.125 1.364a4.885 4.885 0 0 1-1.656.83 7.08 7.08 0 0 1-2.005.278h-3.215V18.8H75.4V5.434zM95.056 18.99c-1.06 0-2.027-.175-2.904-.525-.876-.35-1.71-.887-2.507-1.613l.927-1.108c.693.638 1.393 1.112 2.1 1.424.707.312 1.52.466 2.44.466.897 0 1.61-.212 2.148-.64.536-.425.804-.97.804-1.632v-.038c0-.305-.05-.582-.15-.83a1.693 1.693 0 0 0-.533-.677c-.25-.204-.603-.388-1.05-.553-.45-.165-1.02-.325-1.717-.48a13.57 13.57 0 0 1-1.982-.572c-.562-.216-1.027-.477-1.393-.78a2.89 2.89 0 0 1-.815-1.07c-.177-.41-.266-.886-.266-1.432v-.04a3.318 3.318 0 0 1 1.23-2.604 4.4 4.4 0 0 1 1.38-.765 5.27 5.27 0 0 1 1.74-.276c.973 0 1.82.138 2.546.41a7.72 7.72 0 0 1 2.11 1.233l-.87 1.165c-.62-.51-1.24-.88-1.865-1.11A5.64 5.64 0 0 0 94.47 6.6c-.87 0-1.557.207-2.063.62-.504.415-.757.927-.757 1.537v.038c0 .32.052.602.152.85.1.25.284.478.548.687.265.21.63.4 1.098.573.466.172 1.066.334 1.797.487 1.476.332 2.564.79 3.264 1.375.7.584 1.05 1.386 1.05 2.405v.04c0 .57-.114 1.09-.337 1.554a3.56 3.56 0 0 1-.927 1.193c-.394.33-.87.585-1.424.764-.554.178-1.16.266-1.816.266M109.207 13.51l-5.505-8.074h1.816l4.454 6.683 4.495-6.684h1.74l-5.505 8.056V18.8h-1.495v-5.29zM121.07 5.436h1.4l8.343 10.71V5.436h1.457V18.8h-1.192l-8.55-10.96V18.8h-1.458V5.435zM144.53 19.028c-.96 0-1.843-.178-2.65-.534a6.538 6.538 0 0 1-2.1-1.46 6.67 6.67 0 0 1-1.39-2.185 7.213 7.213 0 0 1-.5-2.694v-.037c0-.945.165-1.835.5-2.675a6.916 6.916 0 0 1 1.39-2.207 6.47 6.47 0 0 1 2.12-1.487c.82-.362 1.714-.543 2.686-.543.605 0 1.15.05 1.637.152a6.72 6.72 0 0 1 1.352.43c.416.184.8.407 1.154.667.352.262.693.55 1.02.87l-1.02 1.104a8.42 8.42 0 0 0-1.826-1.313c-.65-.344-1.43-.517-2.337-.517a4.917 4.917 0 0 0-3.66 1.585c-.46.496-.82 1.078-1.08 1.746a5.884 5.884 0 0 0-.387 2.148v.04c0 .775.13 1.498.388 2.165.258.67.618 1.252 1.078 1.748a5.08 5.08 0 0 0 1.627 1.175c.625.287 1.302.428 2.034.428.908 0 1.69-.167 2.346-.506.656-.335 1.3-.808 1.93-1.422l.984.975c-.34.357-.698.677-1.07.964a6.67 6.67 0 0 1-2.582 1.213 7.27 7.27 0 0 1-1.646.17"/></g></svg><svg width="14" height="12" viewBox="0 0 14 12" id="svg--menu" y="30"><title>Rectangle 3 + Rectangle 3 + Rectangle 3</title><g fill="#28B6FF" fill-rule="evenodd"><path d="M0 0h14v1.5H0zM0 5h14v1.5H0zM0 10h14v1.5H0z"/></g></svg></svg>