<?xml version="1.0" encoding="UTF-8" standalone="no"?><svg width="214" height="185" viewBox="0 0 214 185" xmlns="http://www.w3.org/2000/svg" xmlns:xlink="http://www.w3.org/1999/xlink"><svg width="13" height="8" viewBox="0 0 13 8" id="svg--arrow-bottom" x="185" y="93"><title>43A25BD4-EF7F-4EC6-BAF4-8D6D1ECB3BEB</title><path d="M12.695 1.305l-6 5.219-6-5.22" stroke="#000" fill="none" fill-rule="evenodd"/></svg><svg width="20" height="11" viewBox="0 0 20 11" id="svg--arrow-bottom-white" x="188" y="44"><title>5AAD4131-D10C-4D36-BD3C-27D9074212D3</title><path d="M19 1l-9 7.828L1 1" stroke-width="2" stroke="#FFF" fill="none" fill-rule="evenodd"/></svg><svg width="14" height="12" viewBox="0 0 14 12" id="svg--check" x="171" y="93"><title>Path 311</title><path d="M.777 6.769l4.793 3.76L12.244.815" stroke="#7ED321" stroke-width="2" fill="none" fill-rule="evenodd"/></svg><svg width="92" height="92" viewBox="0 0 92 92" id="svg--empty" y="93"><title>F3CD29E1-7C6D-430C-B028-8AEA0015FD27</title><g transform="translate(1 1)" stroke="#CCC" fill="none" fill-rule="evenodd"><path d="M76.756 13.185c-17.514-17.514-46.008-17.514-63.522 0-17.513 17.514-17.514 46.008 0 63.522 17.514 17.514 46.01 17.516 63.524.003 17.514-17.514 17.512-46.01-.002-63.525zM13.234 76.707l63.522-63.522"/></g></svg><svg width="62" height="62" viewBox="0 0 62 62" id="svg--empty-low" x="92" y="93"><title>39230B00-A1F8-4F85-AF02-9A05D9BE09B3</title><g transform="translate(1 1)" stroke="#CCC" fill="none" fill-rule="evenodd"><path d="M51.17 8.79C39.496-2.886 20.5-2.886 8.824 8.79c-11.676 11.676-11.676 30.672 0 42.348 11.676 11.676 30.673 11.678 42.35.002 11.675-11.676 11.674-30.674-.002-42.35zM8.823 51.138L51.17 8.79"/></g></svg><svg width="214" height="44" viewBox="0 0 214 44" id="svg--lip-sync-auth-logo"><title>Group</title><g fill="#28B6FF" fill-rule="evenodd"><g transform="translate(88.49 11.647)" stroke="#28B6FF" stroke-width=".5"><path d="M.116.84h1.921v15.144h9.586v1.765H.116V.839zM18.506.839h1.922v16.91h-1.922V.838zM34.72 10.067c.701 0 1.339-.088 1.916-.266a4.474 4.474 0 0 0 1.489-.765c.414-.33.73-.723.95-1.173.22-.454.33-.963.33-1.529v-.048c0-1.211-.418-2.13-1.256-2.75-.837-.622-1.948-.934-3.33-.934h-4.317v7.465h4.219zM28.58.839h6.374c.955 0 1.828.126 2.615.374.785.25 1.46.604 2.02 1.063.559.459.988 1.02 1.289 1.679.298.66.45 1.41.45 2.246v.049c0 .918-.18 1.72-.536 2.405a5.164 5.164 0 0 1-1.447 1.726 6.322 6.322 0 0 1-2.129 1.05 9.243 9.243 0 0 1-2.579.35h-4.135v5.967H28.58V.838zM53.855 17.99c-1.362 0-2.606-.221-3.734-.665-1.126-.441-2.2-1.121-3.224-2.041l1.193-1.401c.891.807 1.791 1.406 2.7 1.801.909.395 1.955.59 3.138.59 1.152 0 2.072-.269 2.762-.809.69-.538 1.033-1.227 1.033-2.065v-.049c0-.386-.064-.736-.194-1.05-.13-.314-.358-.6-.683-.856-.325-.259-.777-.492-1.354-.7-.577-.21-1.312-.411-2.207-.606a17.667 17.667 0 0 1-2.547-.725c-.725-.274-1.323-.604-1.794-.989a3.662 3.662 0 0 1-1.047-1.354c-.228-.516-.343-1.12-.343-1.81v-.05c0-.66.14-1.272.414-1.836a4.328 4.328 0 0 1 1.168-1.46 5.683 5.683 0 0 1 1.776-.968 6.876 6.876 0 0 1 2.238-.35c1.25 0 2.339.174 3.272.519.933.347 1.837.866 2.713 1.56l-1.12 1.473c-.794-.645-1.593-1.112-2.396-1.402a7.357 7.357 0 0 0-2.518-.435c-1.119 0-2.002.262-2.652.785-.648.524-.973 1.173-.973 1.945v.048c0 .404.066.76.195 1.075.13.316.365.605.705.87.341.265.812.507 1.411.724.6.218 1.371.423 2.312.616 1.897.421 3.296 1.001 4.196 1.741.9.739 1.35 1.753 1.35 3.042v.05c0 .723-.144 1.38-.43 1.967a4.516 4.516 0 0 1-1.193 1.51c-.507.42-1.117.742-1.831.968a7.697 7.697 0 0 1-2.336.337M72.053 11.057L64.973.84h2.336l5.728 8.457 5.78-8.457h2.238l-7.08 10.194v6.716h-1.922v-6.692zM87.307.84h1.8l10.73 13.551V.84h1.873v16.91h-1.533L89.181 3.883v13.866h-1.874V.839zM117.474 18.038c-1.234 0-2.368-.226-3.407-.676a8.41 8.41 0 0 1-2.7-1.848 8.425 8.425 0 0 1-1.787-2.764 8.998 8.998 0 0 1-.645-3.408v-.047c0-1.194.214-2.32.645-3.383a8.733 8.733 0 0 1 1.788-2.792 8.321 8.321 0 0 1 2.725-1.883c1.053-.459 2.205-.688 3.454-.688.779 0 1.479.064 2.105.193.623.13 1.204.309 1.74.544a7.99 7.99 0 0 1 1.483.845c.454.331.892.697 1.314 1.1l-1.314 1.399a10.826 10.826 0 0 0-2.348-1.664c-.835-.435-1.836-.654-3.004-.654a6.41 6.41 0 0 0-2.615.532 6.392 6.392 0 0 0-2.093 1.473 6.81 6.81 0 0 0-1.386 2.21 7.34 7.34 0 0 0-.499 2.717v.051c0 .98.165 1.895.499 2.739a6.8 6.8 0 0 0 1.386 2.212 6.53 6.53 0 0 0 2.093 1.485 6.278 6.278 0 0 0 2.615.542c1.168 0 2.172-.212 3.017-.64.842-.424 1.67-1.023 2.481-1.8l1.265 1.234c-.438.452-.897.856-1.374 1.22a8.602 8.602 0 0 1-3.321 1.534 9.495 9.495 0 0 1-2.117.217"/></g><path d="M2.511 19.021V7.194c0-5.137 4.876-5.356 5.433-5.36H32.58c5.194 0 5.42 4.804 5.426 5.36V19.03c0 5.138-4.886 5.36-5.435 5.361H17.203s-6.198 4.062-8.249 5.417V24.39H7.927c-5.192 0-5.412-4.827-5.416-5.369zM7.927.019C4.427.076.674 2.328.674 7.194V19.03c.042 3.253 2.105 6.694 6.443 7.098V33.2s10.2-6.714 10.64-6.994h14.824c3.508-.044 7.261-2.312 7.261-7.177V7.186C39.794 3.723 37.498.019 32.581.019H7.927z"/><path d="M59.798 35.172h-1.025v5.418c-2.053-1.356-8.249-5.418-8.249-5.418H35.153c-.547-.002-5.435-.223-5.435-5.36V17.977c.007-.557.232-5.361 5.426-5.361h24.637c.56.004 5.433.223 5.433 5.36v11.827c-.004.542-.224 5.37-5.416 5.37zm-24.654-24.37c-4.917 0-7.213 3.703-7.261 7.166v11.844c0 4.864 3.753 7.133 7.261 7.177h14.823c.441.279 10.643 6.993 10.643 6.993v-7.073c4.336-.404 6.4-3.845 6.441-7.097V17.977c0-4.867-3.753-7.119-7.253-7.175H35.144z"/></g></svg><svg width="188" height="49" viewBox="0 0 188 49" id="svg--logo" y="44"><title>9238E67B-4762-4BA2-B878-4ADCACF66F2B</title><g fill="#FFF" fill-rule="evenodd"><path d="M21.977 26.087H18.24c-.22.217-5.054 2.609-7.252 4.783v-5.218l-3.076-.217c-3.517-.218-5.714-3.044-5.714-5.218V7.827c0-3.914 3.955-5.653 6.373-5.653h25.713c3.956 0 5.274 3.26 5.274 5.652v.87h2.198v-.87C41.756 4.13 39.338 0 34.284 0H8.57C4.835 0 0 2.826 0 7.826v12.391c0 3.479 2.198 6.957 8.79 7.392V35s9.67-6.74 10.11-6.74h3.077v-2.173z"/><path d="M51.426 48.26l-1.759-1.086S40.657 41.087 38.9 40h-6.373c-4.176 0-8.571-2.826-8.571-8.478V19.13c0-4.13 2.857-8.478 8.57-8.478h16.923c4.175 0 8.57 2.826 8.57 8.478v12.392c0 3.478-2.197 7.391-6.812 8.26v8.479h.22zM39.119 37.827h.22l.22.217c.439.218 6.372 4.13 9.45 6.087v-6.304h1.098c3.956-.435 5.714-3.478 5.714-6.304V19.13c0-4.347-3.297-6.304-6.373-6.304H32.526c-4.396 0-6.374 3.261-6.374 6.304v12.392c0 4.348 3.297 6.304 6.374 6.304h6.593zM68.128 15.652h2.198v17.391h10.988V35H68.128zM85.05 15.652h2.198V35H85.05zM93.181 15.652h7.253c1.099 0 2.197.218 3.076.435.88.217 1.759.652 2.418 1.304.66.435 1.099 1.087 1.538 1.957.44.652.44 1.522.44 2.609 0 1.086-.22 1.956-.66 2.826-.439.87-.879 1.521-1.758 1.956-.659.435-1.538.87-2.417 1.304-.88.218-1.978.435-2.857.435h-4.835v6.74h-2.198V15.651zm7.033 10.652c.879 0 1.538 0 2.198-.217.659-.217 1.318-.435 1.758-.87.44-.434.879-.87 1.099-1.304.22-.435.44-1.087.44-1.74 0-1.303-.44-2.39-1.54-3.043-.878-.652-2.197-1.087-3.735-1.087h-5.055v8.479h4.835v-.218zM118.235 35.217c-1.538 0-3.077-.217-4.176-.652-1.318-.435-2.417-1.304-3.736-2.391l1.319-1.522c1.099.87 1.978 1.522 3.077 1.957 1.098.434 2.197.652 3.516.652 1.318 0 2.417-.218 3.077-.87.879-.652 1.098-1.304 1.098-2.391 0-.435 0-.87-.22-1.304-.22-.435-.439-.653-.878-.87-.44-.217-.88-.652-1.539-.87-.659-.217-1.538-.434-2.637-.652-1.099-.217-2.198-.434-2.857-.87a4.261 4.261 0 0 1-1.978-1.086c-.44-.435-.879-.87-1.099-1.522-.22-.652-.44-1.304-.44-2.174 0-.652.22-1.522.44-2.174.22-.652.66-1.304 1.319-1.739.66-.435 1.319-.87 1.978-1.087.879-.217 1.538-.435 2.637-.435 1.538 0 2.637.218 3.736.653 1.099.434 2.198 1.087 3.077 1.739l-.88 1.956c-.878-.652-1.757-1.304-2.856-1.522-.88-.434-1.978-.434-2.857-.434-1.319 0-2.198.217-3.077.87-.66.651-1.099 1.304-1.099 2.173 0 .435 0 .87.22 1.305.22.434.44.652.88 1.086.439.218.878.653 1.537.87.66.217 1.539.435 2.638.652 2.197.435 3.736 1.087 4.835 1.957 1.098.87 1.538 1.956 1.538 3.478 0 .87-.22 1.522-.44 2.174-.44.652-.879 1.304-1.318 1.739-.66.435-1.319.87-2.198 1.087-.879.217-1.758.217-2.637.217zM135.377 27.391l-8.132-11.739h2.638l6.593 9.565 6.593-9.565h2.637l-8.132 11.74V35h-2.197zM149.442 15.652h1.978l12.307 15.435V15.652h2.197V35h-1.758L151.64 19.13V35h-2.198zM179.55 35.435c-1.319 0-2.637-.218-3.956-.87-1.099-.435-2.197-1.304-3.077-2.174-.879-.87-1.538-1.956-1.977-3.26a12.19 12.19 0 0 1-.66-3.914c0-1.304.22-2.608.66-3.913.44-1.304 1.098-2.174 1.977-3.26.88-.87 1.978-1.522 3.077-2.174 1.099-.435 2.637-.87 3.956-.87.88 0 1.758 0 2.417.217l1.978.653c.66.217 1.1.652 1.758.87.44.434 1.1.869 1.539 1.303l-1.539 1.522c-.879-.87-1.758-1.304-2.637-1.956-.879-.435-2.197-.652-3.516-.652-1.099 0-1.978.217-3.077.652-.879.434-1.758.87-2.417 1.739-.66.652-1.319 1.522-1.539 2.609-.44.87-.659 1.956-.659 3.043 0 1.087.22 2.174.66 3.043.439.87.879 1.74 1.538 2.61a9.754 9.754 0 0 0 2.417 1.738c.88.435 1.978.652 3.077.652 1.319 0 2.417-.217 3.516-.652.88-.434 1.978-1.087 2.857-1.956l1.539 1.304c-.44.435-1.1.87-1.539 1.304-.44.435-1.099.87-1.758 1.087l-1.978.653c-.879.434-1.758.652-2.637.652z"/></g></svg><svg width="17" height="17" viewBox="0 0 17 17" id="svg--logo-android" x="154" y="93"><title>0441495A-8366-4F4B-9D71-AE8624F79F5B</title><path d="M1.344 16.02h13.444c.74 0 1.344-.605 1.344-1.344v-3.921H0v3.92c0 .74.605 1.345 1.344 1.345zM12.812 2.904l1.747-1.748a.666.666 0 0 0 0-.954.666.666 0 0 0-.954 0l-1.99 1.99a7.85 7.85 0 0 0-3.549-.848c-1.29 0-2.5.31-3.576.847L2.487.201a.666.666 0 0 0-.954 0 .666.666 0 0 0 0 .955l1.76 1.761A8.044 8.044 0 0 0 0 9.41h16.132a8.02 8.02 0 0 0-3.32-6.506zM5.377 6.722H4.033V5.377h1.344v1.345zm6.722 0h-1.344V5.377h1.344v1.345z" fill="#28B6FF" fill-rule="evenodd"/></svg><svg width="15" height="18" viewBox="0 0 15 18" id="svg--logo-apple" x="188" y="55"><title>99735236-DCE1-4F6C-92C5-E2581FBE085E</title><g fill="#28B6FF" fill-rule="evenodd"><path d="M12.414 9.542c-.02-2.267 1.88-3.37 1.968-3.42-1.077-1.55-2.746-1.762-3.332-1.779-1.402-.145-2.761.828-3.475.828-.728 0-1.828-.814-3.013-.79-1.525.023-2.951.895-3.733 2.248-1.615 2.76-.41 6.814 1.136 9.044.774 1.093 1.678 2.312 2.862 2.269 1.157-.046 1.59-.729 2.987-.729 1.385 0 1.79.729 2.998.7 1.242-.017 2.025-1.096 2.772-2.198.894-1.251 1.253-2.485 1.267-2.549-.028-.009-2.413-.907-2.437-3.624M10.134 2.876c.623-.769 1.049-1.815.93-2.876-.9.04-2.028.616-2.677 1.367-.574.663-1.087 1.749-.955 2.77 1.013.075 2.052-.504 2.702-1.261"/></g></svg><svg width="18" height="18" viewBox="0 0 18 18" id="svg--plus" x="188" y="73"><title>A4137EDF-748B-49D4-B7F6-10E740C93355</title><g transform="translate(1 1)" stroke="#FFF" fill="none" fill-rule="evenodd" opacity=".5"><ellipse cx="7.998" cy="8.002" rx="7.588" ry="7.588"/><path d="M8 3.602v8.8M3.6 8h8.8"/></g></svg></svg>