<?xml version="1.0" encoding="UTF-8" standalone="no"?><svg width="219" height="44" viewBox="0 0 219 44" xmlns="http://www.w3.org/2000/svg" xmlns:xlink="http://www.w3.org/1999/xlink"><svg width="219" height="44" viewBox="0 0 219 44" id="svg--lip-sync-logo"><title>lipSync_logo_editable</title><g transform="translate(-1)" fill="#28B6FF" fill-rule="evenodd"><path d="M3.24 19.143V7.8c0-4.93 4.58-5.14 5.103-5.143h23.145c4.88 0 5.092 4.608 5.098 5.142v11.35c0 4.93-4.59 5.14-5.106 5.143H17.042s-5.823 3.896-7.75 5.196v-5.197h-.965c-4.878 0-5.084-4.63-5.088-5.15zM8.326.917C5.04.97 1.513 3.13 1.513 7.8v11.35c.04 3.12 1.978 6.42 6.053 6.81v6.783s9.583-6.44 9.997-6.708h13.925c3.296-.042 6.822-2.218 6.822-6.884V7.79C38.265 4.47 36.108.918 31.488.918H8.328z"/><path d="M57.058 34.635h-.963v5.196c-1.928-1.3-7.75-5.195-7.75-5.195h-14.44c-.513-.002-5.106-.214-5.106-5.142V18.14c.005-.533.217-5.14 5.097-5.14h23.146c.525.003 5.103.213 5.103 5.14v11.345c-.004.52-.21 5.15-5.088 5.15zM33.898 11.26c-4.62 0-6.777 3.55-6.823 6.873v11.36c0 4.666 3.526 6.842 6.822 6.884h13.925c.415.268 10 6.708 10 6.708V36.3c4.073-.387 6.01-3.687 6.05-6.807V18.14c0-4.667-3.525-6.827-6.814-6.88h-23.16zM78.122 7.973h2.192v17.554h10.932v2.046H78.122v-19.6zM99.097 7.972h2.192v19.6h-2.193v-19.6zM117.59 18.668c.8 0 1.527-.102 2.185-.308.658-.208 1.225-.5 1.7-.886a3.955 3.955 0 0 0 1.083-1.36 4.08 4.08 0 0 0 .377-1.772v-.056c0-1.404-.478-2.468-1.433-3.188-.956-.72-2.222-1.082-3.8-1.082h-4.923v8.652h4.81zm-7.003-10.696h7.27c1.09 0 2.085.146 2.983.434.896.29 1.665.7 2.303 1.232a5.352 5.352 0 0 1 1.47 1.946c.34.766.514 1.634.514 2.604v.056c0 1.064-.204 1.994-.61 2.788a5.963 5.963 0 0 1-1.652 2c-.693.542-1.504.948-2.428 1.218-.925.272-1.906.406-2.94.406h-4.718v6.916h-2.193v-19.6zM139.415 27.852c-1.554 0-2.973-.256-4.26-.77-1.283-.512-2.508-1.3-3.676-2.366l1.36-1.624c1.016.936 2.042 1.63 3.08 2.088 1.036.458 2.23.684 3.578.684 1.314 0 2.363-.312 3.15-.938.787-.624 1.18-1.422 1.18-2.394v-.056c0-.448-.074-.854-.223-1.218-.15-.364-.408-.696-.78-.992-.37-.3-.885-.57-1.543-.812-.658-.242-1.496-.476-2.517-.702-1.112-.242-2.08-.522-2.905-.84-.827-.318-1.51-.7-2.046-1.146a4.237 4.237 0 0 1-1.195-1.57c-.26-.598-.39-1.298-.39-2.098v-.058c0-.764.157-1.474.47-2.128a5.003 5.003 0 0 1 1.332-1.692 6.452 6.452 0 0 1 2.026-1.122c.777-.27 1.627-.406 2.553-.406 1.426 0 2.668.202 3.733.602 1.064.402 2.095 1.004 3.093 1.808l-1.276 1.708c-.906-.748-1.817-1.29-2.733-1.626a8.27 8.27 0 0 0-2.872-.504c-1.276 0-2.283.304-3.024.91-.74.608-1.11 1.36-1.11 2.254v.056c0 .468.076.882.223 1.246.148.366.416.702.804 1.008.39.308.926.588 1.61.84.683.252 1.563.49 2.636.714 2.164.488 3.76 1.16 4.786 2.018 1.026.856 1.54 2.032 1.54 3.526v.058c0 .838-.165 1.6-.492 2.28a5.222 5.222 0 0 1-1.36 1.75c-.58.486-1.274.86-2.09 1.122-.812.262-1.702.39-2.663.39M160.17 19.816l-8.074-11.844h2.664l6.533 9.802 6.592-9.802h2.553l-8.075 11.816v7.784h-2.192v-7.756zM177.57 7.973h2.053L191.86 23.68V7.974h2.136v19.6h-1.748L179.706 11.5v16.073h-2.137v-19.6zM211.976 27.908c-1.407 0-2.7-.262-3.886-.784a9.59 9.59 0 0 1-3.078-2.142 9.784 9.784 0 0 1-2.04-3.204 10.58 10.58 0 0 1-.735-3.95v-.054c0-1.384.244-2.69.735-3.922.49-1.232 1.17-2.31 2.04-3.236a9.49 9.49 0 0 1 3.107-2.182c1.2-.532 2.515-.798 3.94-.798.888 0 1.686.074 2.4.224.71.15 1.373.358 1.984.63.61.272 1.173.598 1.692.98a15.08 15.08 0 0 1 1.5 1.274l-1.5 1.622a12.35 12.35 0 0 0-2.677-1.928c-.955-.504-2.096-.758-3.428-.758a7.21 7.21 0 0 0-5.37 2.324 7.912 7.912 0 0 0-1.58 2.562 8.63 8.63 0 0 0-.57 3.148v.06c0 1.136.188 2.196.57 3.174a7.9 7.9 0 0 0 1.58 2.564 7.45 7.45 0 0 0 2.387 1.722c.915.42 1.908.628 2.982.628 1.332 0 2.477-.246 3.44-.742.962-.492 1.905-1.186 2.83-2.086l1.444 1.43c-.5.524-1.023.992-1.568 1.414a9.782 9.782 0 0 1-1.762 1.078c-.63.298-1.304.532-2.026.7-.72.168-1.526.252-2.414.252"/></g></svg></svg>