<?xml version="1.0" encoding="UTF-8" standalone="no"?><svg width="214" height="110" viewBox="0 0 214 110" xmlns="http://www.w3.org/2000/svg" xmlns:xlink="http://www.w3.org/1999/xlink"><svg width="20" height="20" viewBox="0 0 20 20" id="svg--close" x="36" y="74"><title>Group</title><g fill="#28B6FF" fill-rule="evenodd"><path d="M.808 17.778L17.778.808l1.414 1.414-16.97 16.97z"/><path d="M2.222.808l16.97 16.97-1.414 1.414L.808 2.222z"/></g></svg><svg width="36" height="36" viewBox="0 0 36 36" id="svg--dedicated" y="74"><title>Group 5</title><g fill="none" fill-rule="evenodd"><path d="M33.998 15.738C33.858 7.022 26.748 0 18 0 9.222 0 2.096 7.068 2 15.823 1.03 16.917.454 19.01.804 20.998c.4 2.26 1.87 3.675 3.292 3.922C6.85 30.93 12.045 36 18 36c5.95 0 11.142-5.062 13.9-11.067 1.446-.205 2.967-1.63 3.374-3.935.36-2.04-.256-4.192-1.276-5.26z" stroke="#000" stroke-width="2.5" fill="#FFF"/><path d="M2.65 16.757s17.554-3.788 22.332-6.87a660.805 660.805 0 0 1 6.035 7.893s1.3.848 2.604.424M3.883 23.865v9.998l8.422-1.045M32.305 23.865v9.998l-8.422-1.045" stroke="#000" stroke-width="2.5"/><path d="M30.123 24.984c-2.94 5.477-11.374 6.2-11.374 6.2" stroke="#000" stroke-width="1.5"/><ellipse fill="#000" cx="18.75" cy="31.25" rx="1.75" ry="1.25"/><path d="M14.824 26.79s1.083.728 2.78.728c1.696 0 2.7-.776 2.7-.776" stroke="#000" stroke-width="1.5" stroke-linecap="round"/><path d="M20.424 20.473s1.058-1.452 2.566-1.452c1.508 0 2.048.538 2.048.538s.906.178 1.464-.447M14.502 20.473s-1.06-1.452-2.567-1.452c-1.508 0-2.048.538-2.048.538s-.906.178-1.463-.447" stroke="#000" stroke-width="1.5"/></g></svg><svg width="214" height="44" viewBox="0 0 214 44" id="svg--lip-sync-auth-logo"><title>Group</title><g fill="#28B6FF" fill-rule="evenodd"><g transform="translate(88.49 11.647)" stroke="#28B6FF" stroke-width=".5"><path d="M.116.84h1.92v15.144h9.587v1.765H.116V.84zM18.506.84h1.922v16.908h-1.922V.838zM34.72 10.067c.7 0 1.34-.088 1.916-.266a4.474 4.474 0 0 0 1.49-.764c.413-.33.73-.723.95-1.173.22-.454.33-.963.33-1.53v-.047c0-1.21-.42-2.13-1.257-2.75-.838-.622-1.95-.934-3.332-.934h-4.316v7.465h4.22zM28.58.84h6.374c.955 0 1.828.125 2.615.373.784.25 1.46.604 2.018 1.063.56.46.99 1.02 1.29 1.68.298.66.45 1.41.45 2.245v.05c0 .918-.18 1.72-.536 2.405a5.164 5.164 0 0 1-1.447 1.726 6.322 6.322 0 0 1-2.13 1.05 9.243 9.243 0 0 1-2.578.352h-4.135v5.966H28.58V.838zM53.855 17.99c-1.362 0-2.606-.22-3.734-.665-1.125-.44-2.2-1.12-3.223-2.04l1.193-1.402c.89.807 1.79 1.406 2.7 1.8.91.396 1.955.59 3.138.59 1.152 0 2.072-.268 2.762-.808.69-.538 1.033-1.227 1.033-2.065v-.05c0-.385-.064-.735-.194-1.05-.13-.313-.36-.6-.684-.855-.325-.26-.777-.492-1.354-.7-.577-.21-1.312-.41-2.207-.606-.975-.21-1.824-.452-2.547-.726-.725-.274-1.323-.604-1.794-.99-.47-.387-.82-.837-1.047-1.353-.228-.515-.343-1.12-.343-1.81v-.05c0-.66.14-1.27.414-1.835a4.328 4.328 0 0 1 1.168-1.46 5.683 5.683 0 0 1 1.776-.968 6.876 6.876 0 0 1 2.238-.35c1.25 0 2.34.174 3.272.52.933.346 1.837.865 2.713 1.56l-1.12 1.472c-.794-.646-1.593-1.113-2.396-1.403a7.357 7.357 0 0 0-2.52-.435c-1.118 0-2 .262-2.65.785-.65.524-.974 1.173-.974 1.945v.048c0 .404.066.76.195 1.075.13.316.366.605.706.87.34.265.812.507 1.41.724.6.217 1.372.422 2.313.615 1.896.42 3.295 1 4.195 1.74.9.74 1.35 1.754 1.35 3.043v.05c0 .723-.144 1.38-.43 1.967a4.516 4.516 0 0 1-1.193 1.51c-.507.42-1.117.742-1.83.968a7.697 7.697 0 0 1-2.337.337M72.053 11.057L64.973.84h2.336l5.727 8.456L78.817.84h2.238l-7.08 10.193v6.716h-1.922v-6.693zM87.307.84h1.8l10.73 13.55V.84h1.873v16.91h-1.533L89.18 3.882V17.75h-1.873V.84zM117.474 18.038c-1.234 0-2.368-.226-3.407-.676a8.41 8.41 0 0 1-2.7-1.848 8.425 8.425 0 0 1-1.787-2.764 8.998 8.998 0 0 1-.645-3.408v-.047c0-1.194.214-2.32.645-3.383a8.733 8.733 0 0 1 1.788-2.792 8.32 8.32 0 0 1 2.725-1.883c1.053-.46 2.205-.688 3.454-.688.78 0 1.48.063 2.105.192.623.13 1.204.31 1.74.544a7.99 7.99 0 0 1 1.483.845c.454.332.892.698 1.314 1.1l-1.315 1.4a10.826 10.826 0 0 0-2.348-1.664c-.835-.435-1.836-.654-3.004-.654a6.41 6.41 0 0 0-2.615.532c-.803.354-1.502.847-2.093 1.473a6.81 6.81 0 0 0-1.386 2.21 7.34 7.34 0 0 0-.5 2.717v.05c0 .98.165 1.896.5 2.74a6.8 6.8 0 0 0 1.385 2.212 6.53 6.53 0 0 0 2.093 1.485 6.278 6.278 0 0 0 2.615.543c1.168 0 2.172-.212 3.017-.64.842-.424 1.67-1.023 2.48-1.8l1.266 1.234c-.438.452-.897.856-1.374 1.22a8.602 8.602 0 0 1-3.32 1.534 9.495 9.495 0 0 1-2.118.218"/></g><path d="M2.51 19.02V7.195c0-5.137 4.877-5.356 5.434-5.36H32.58c5.195 0 5.42 4.804 5.427 5.36V19.03c0 5.137-4.886 5.358-5.435 5.36h-15.37s-6.197 4.062-8.248 5.417V24.39H7.927c-5.192 0-5.412-4.827-5.416-5.37zm5.417-19C4.427.075.674 2.327.674 7.193V19.03c.042 3.252 2.105 6.693 6.443 7.097V33.2s10.2-6.714 10.64-6.994h14.824c3.51-.044 7.262-2.312 7.262-7.177V7.185C39.794 3.723 37.498.02 32.582.02H7.926z"/><path d="M59.798 35.172h-1.025v5.418c-2.053-1.356-8.25-5.418-8.25-5.418h-15.37c-.547-.002-5.435-.223-5.435-5.36V17.977c.007-.557.232-5.36 5.426-5.36H59.78c.56.003 5.434.222 5.434 5.36v11.826c-.004.542-.224 5.37-5.416 5.37zm-24.654-24.37c-4.917 0-7.213 3.703-7.26 7.166v11.844c0 4.864 3.752 7.133 7.26 7.177h14.823c.44.278 10.643 6.992 10.643 6.992V36.91c4.336-.405 6.4-3.846 6.44-7.098V17.977c0-4.867-3.752-7.12-7.252-7.175H35.144z"/></g></svg><svg width="149" height="30" viewBox="0 0 149 30" id="svg--lip-sync-logo" y="44"><title>lipSync_logo_editable</title><g transform="translate(-1)" fill="#28B6FF" fill-rule="evenodd"><path d="M2.21 13.052V5.317c0-3.36 3.12-3.503 3.478-3.506h15.78c3.328 0 3.473 3.143 3.477 3.507v7.74c0 3.36-3.13 3.505-3.48 3.506h-9.846s-3.97 2.657-5.284 3.543v-3.543h-.66c-3.324 0-3.465-3.157-3.467-3.51zM5.676.625C3.437.662 1.03 2.135 1.03 5.317v7.74c.03 2.127 1.35 4.377 4.13 4.642v4.625s6.532-4.39 6.815-4.574h9.494c2.247-.028 4.65-1.51 4.65-4.693V5.312c-.03-2.265-1.5-4.687-4.65-4.687H5.676z"/><path d="M38.904 23.615h-.657v3.542c-1.315-.886-5.284-3.542-5.284-3.542h-9.846c-.35-.002-3.48-.146-3.48-3.506v-7.74c.003-.365.148-3.507 3.475-3.507h15.78c.36.003 3.48.146 3.48 3.506v7.733c-.002.355-.143 3.512-3.468 3.512zM23.112 7.675c-3.15 0-4.62 2.423-4.652 4.688v7.746c0 3.18 2.404 4.664 4.652 4.692h9.494c.283.183 6.818 4.574 6.818 4.574V24.75c2.777-.264 4.098-2.514 4.125-4.64v-7.74c0-3.184-2.405-4.657-4.646-4.694H23.112zM53.265 5.436h1.494v11.968h7.454V18.8h-8.95V5.435zM67.566 5.435h1.495V18.8h-1.494V5.434zM80.176 12.728c.544 0 1.04-.07 1.49-.21a3.46 3.46 0 0 0 1.157-.604c.322-.262.568-.57.74-.927.17-.36.256-.76.256-1.208v-.04c0-.957-.327-1.682-.978-2.173-.65-.49-1.515-.738-2.59-.738h-3.357v5.898h3.28zM75.4 5.435h4.957c.743 0 1.422.1 2.034.296.61.2 1.136.48 1.57.84.436.364.77.807 1.004 1.328.232.522.35 1.114.35 1.776v.038c0 .725-.14 1.36-.417 1.9-.278.54-.652.996-1.125 1.364a4.885 4.885 0 0 1-1.656.83 7.08 7.08 0 0 1-2.005.278h-3.215V18.8H75.4V5.434zM95.056 18.99c-1.06 0-2.027-.175-2.904-.525-.876-.35-1.71-.887-2.507-1.613l.927-1.108c.693.638 1.393 1.112 2.1 1.424.707.312 1.52.466 2.44.466.897 0 1.61-.212 2.148-.64.536-.425.804-.97.804-1.632v-.038c0-.305-.05-.582-.15-.83a1.693 1.693 0 0 0-.533-.677c-.25-.204-.603-.388-1.05-.553-.45-.165-1.02-.325-1.717-.48a13.57 13.57 0 0 1-1.982-.572c-.562-.216-1.027-.477-1.393-.78a2.89 2.89 0 0 1-.815-1.07c-.177-.41-.266-.886-.266-1.432v-.04a3.318 3.318 0 0 1 1.23-2.604 4.4 4.4 0 0 1 1.38-.765 5.27 5.27 0 0 1 1.74-.276c.973 0 1.82.138 2.546.41a7.72 7.72 0 0 1 2.11 1.233l-.87 1.165c-.62-.51-1.24-.88-1.865-1.11A5.64 5.64 0 0 0 94.47 6.6c-.87 0-1.557.207-2.063.62-.504.415-.757.927-.757 1.537v.038c0 .32.052.602.152.85.1.25.284.478.548.687.265.21.63.4 1.098.573.466.172 1.066.334 1.797.487 1.476.332 2.564.79 3.264 1.375.7.584 1.05 1.386 1.05 2.405v.04c0 .57-.114 1.09-.337 1.554a3.56 3.56 0 0 1-.927 1.193c-.394.33-.87.585-1.424.764-.554.178-1.16.266-1.816.266M109.207 13.51l-5.505-8.074h1.816l4.454 6.683 4.495-6.684h1.74l-5.505 8.056V18.8h-1.495v-5.29zM121.07 5.436h1.4l8.343 10.71V5.436h1.457V18.8h-1.192l-8.55-10.96V18.8h-1.458V5.435zM144.53 19.028c-.96 0-1.843-.178-2.65-.534a6.538 6.538 0 0 1-2.1-1.46 6.67 6.67 0 0 1-1.39-2.185 7.213 7.213 0 0 1-.5-2.694v-.037c0-.945.165-1.835.5-2.675a6.916 6.916 0 0 1 1.39-2.207 6.47 6.47 0 0 1 2.12-1.487c.82-.362 1.714-.543 2.686-.543.605 0 1.15.05 1.637.152a6.72 6.72 0 0 1 1.352.43c.416.184.8.407 1.154.667.352.262.693.55 1.02.87l-1.02 1.104a8.42 8.42 0 0 0-1.826-1.313c-.65-.344-1.43-.517-2.337-.517a4.917 4.917 0 0 0-3.66 1.585c-.46.496-.82 1.078-1.08 1.746a5.884 5.884 0 0 0-.387 2.148v.04c0 .775.13 1.498.388 2.165.258.67.618 1.252 1.078 1.748a5.08 5.08 0 0 0 1.627 1.175c.625.287 1.302.428 2.034.428.908 0 1.69-.167 2.346-.506.656-.335 1.3-.808 1.93-1.422l.984.975c-.34.357-.698.677-1.07.964a6.67 6.67 0 0 1-2.582 1.213 7.27 7.27 0 0 1-1.646.17"/></g></svg><svg width="14" height="12" viewBox="0 0 14 12" id="svg--menu" x="56" y="74"><title>Rectangle 3 + Rectangle 3 + Rectangle 3</title><g fill="#28B6FF" fill-rule="evenodd"><path d="M0 0h14v1.5H0zM0 5h14v1.5H0zM0 10h14v1.5H0z"/></g></svg><svg width="24" height="16" viewBox="0 0 24 16" id="svg--menu-two" x="189" y="44"><title>Group</title><g fill="#28B6FF" fill-rule="evenodd"><path d="M0 0h24v2H0zM0 7h24v2H0zM0 14h24v2H0z"/></g></svg><svg width="40" height="22" viewBox="0 0 40 22" id="svg--unlimited" x="149" y="44"><title>Group 3 Copy</title><g fill="#000" fill-rule="evenodd"><path d="M28.148 12.804l-4.264-.272c-.755-.96-1.638-2.207-2.693-3.79-2.955-4.44-5.48-6.298-9.35-6.298-6.232 0-9.26 4.1-9.26 8.61H.11C.11 4.977 5.717 0 11.84 0c2.814 0 5.412.83 8.01 3.262C21.95 1.11 25.09 0 28.395 0c6.137 0 11.11 4.925 11.11 11 0 .132 0 .263-.006.394h.012c0 2.89-1.213 5.416-3.146 7.27A11.133 11.133 0 0 1 28.396 22v-.074c-.127.004-.253.006-.38.006-4.036 0-7.625-1.22-11.412-6.907-3.025-4.542-4.335-5.816-5-5.732v-1.96C9.56 7.333 7.902 8.975 7.902 11s1.66 3.667 3.705 3.667V12.222A1.228 1.228 0 0 1 10.37 11c0-.675.553-1.222 1.235-1.222v-.17l4.367.28c.755.96 1.638 2.207 2.693 3.79 2.956 4.44 5.482 5.81 9.352 5.81 2.626 0 4.982-.99 6.628-2.58A8.482 8.482 0 0 0 37.037 11c0-4.725-3.87-8.556-8.642-8.556-2.836 0-5.313.965-6.865 2.618.57.69 1.145 1.466 1.722 2.333 2.876 4.318 4.202 5.683 4.896 5.735V14.667c2.046 0 3.704-1.642 3.704-3.667s-1.658-3.667-3.704-3.667V9.778c.682 0 1.235.547 1.235 1.222 0 .675-.553 1.222-1.235 1.222v.582z"/><path d="M28.395 7.34v-.007c-2.045-.128-5.928 1.243-5.603 3.287.324 2.045 2.997 4.19 5.603 4.047v-.008c1.93-.127 3.457-1.717 3.457-3.66s-1.527-3.533-3.457-3.66zm-.247 2.43c-.61-.012-1.602.216-2.346.582-.34.167-.575.335-.667.444.062-.073.137-.294.096-.555.132.83 1.655 1.99 2.918 1.99v-.008c.682 0 1.235-.547 1.235-1.222 0-.675-.553-1.222-1.235-1.222v-.01zM21.235 17.168C19.29 20.358 15.26 22 11.223 22 5.087 22 .113 17.075.113 11S5.086 0 11.222 0v2.444C6.45 2.444 2.58 6.274 2.58 11c0 4.725 3.87 8.556 8.643 8.556 3.467 0 6.533-1.415 7.898-3.652"/><path d="M28.395 14.667c-2.606.143-5.28-2.002-5.603-4.047-.325-2.044 3.558-3.415 5.603-3.287l-.157 2.44c-.6-.038-1.654.195-2.436.58-.34.166-.575.334-.667.443.062-.073.137-.294.096-.555.136.853 1.745 2.057 3.028 1.986M11.278 12.222c.955-.003 2.164-.166 3-.433.36-.117.595-.235.653-.286-.19.168-.36.558-.297.972-.02-.135-.12-.39-.3-.69a5.013 5.013 0 0 0-.87-1.058c-.697-.648-1.43-.976-1.98-.944l-.144-2.44c2.812-.162 5.445 2.844 5.735 4.772.29 1.928-3.782 2.55-5.828 2.55l.03-2.444"/></g></svg></svg>